<?xml version="1.0" encoding="UTF-8"?>
<svg width="1151px" height="756px" viewBox="0 0 1151 756" version="1.1" xmlns="http://www.w3.org/2000/svg" xmlns:xlink="http://www.w3.org/1999/xlink">
    <!-- Generator: Sketch 57.1 (83088) - https://sketch.com -->
    <title>1-get-preapproved</title>
    <desc>Created with Sketch.</desc>
    <defs>
        <linearGradient x1="50.0144645%" y1="100.013623%" x2="50.0144645%" y2="-0.0116140481%" id="linearGradient-1">
            <stop stop-color="#808080" stop-opacity="0.25" offset="0%"></stop>
            <stop stop-color="#808080" stop-opacity="0.12" offset="54%"></stop>
            <stop stop-color="#808080" stop-opacity="0.1" offset="100%"></stop>
        </linearGradient>
        <linearGradient x1="50.0028125%" y1="100.015231%" x2="50.0028125%" y2="-0.000623752199%" id="linearGradient-2">
            <stop stop-color="#808080" stop-opacity="0.25" offset="0%"></stop>
            <stop stop-color="#808080" stop-opacity="0.12" offset="54%"></stop>
            <stop stop-color="#808080" stop-opacity="0.1" offset="100%"></stop>
        </linearGradient>
    </defs>
    <g id="Page-1" stroke="none" stroke-width="1" fill="none" fill-rule="evenodd">
        <g id="1-get-preapproved" transform="translate(-79.000000, -41.000000)">
            <path d="M1145.62,660.94 C1142.03333,664.093333 1138.36667,667.156667 1134.62,670.13 C1133.99,670.64 1133.34,671.13 1132.7,671.65 C1119.33617,682.015931 1105.30598,691.492993 1090.7,700.02 L1087.97,701.61 C1087.31,702.01 1086.66,702.38 1085.97,702.75 C1070.71,711.56 1054.88,719.67 1038.86,727.35 L1038.69,727.44 L1037.48,728.01 C1024.56,734.203333 1011.44667,740.13 998.14,745.79 L997.82,745.91 C991.82,748.436667 985.82,750.896667 979.82,753.29 C977.37,754.29 974.91,755.22 972.45,756.17 C967.82,757.94 963.18,759.68 958.5,761.35 L957.92,761.57 L956.92,761.92 L955.67,762.38 C943.463333,766.74 931.093333,770.766667 918.56,774.46 L918.34,774.52 C909.6,777.066667 900.803333,779.423333 891.95,781.59 L890.74,781.89 C877.74,785.03 864.53,787.73 851.24,789.89 L848.18,790.38 C838.46,791.906667 828.673333,793.153333 818.82,794.12 C763.43,799.47 707.38,795.12 652.33,787.66 C541.17,772.58 431.48,744.31 331.44,700 C312.24,691.5 293.413333,682.4 274.96,672.7 C274.81,672.62 274.68,672.54 274.53,672.47 C263.483333,666.663333 252.586667,660.613333 241.84,654.32 C238.69,652.5 235.56,650.64 232.45,648.77 C228.623333,646.463333 224.813333,644.13 221.02,641.77 C216.02,638.65 211.02,635.45 206.02,632.18 L203.68,630.62 L202.78,630.01 C201.51,629.16 200.26,628.31 199,627.45 C152,595.45 110.09,556.67 90.29,508.14 C67.41,452.14 82.05,381.14 138.72,348.04 C158.2,336.64 180.84,330.45 203.72,325.34 L206.06,324.82 C209.93,323.97 213.8,323.15 217.65,322.33 C231.14,319.47 244.7,316.63 258.13,313.46 L258.13,313.46 C265.13,311.81 272.06,310.08 278.95,308.21 L281.77,307.43 C298.386469,302.972148 314.637284,297.248759 330.38,290.31 L330.48,290.31 C332.17,289.56 333.84,288.78 335.48,287.98 C336.54,287.48 337.6,286.98 338.66,286.43 C355.66,277.97 373.66,266.24 387.51,252.26 C388.62,251.14 389.7,250 390.75,248.86 C391.56,247.97 392.36,247.07 393.13,246.17 C402.84,234.85 409.56,222.28 410.84,208.94 L410.84,208.94 C411.270986,204.457352 411.069005,199.936356 410.24,195.51 C408.67,187.12 407.15,178.91 406.03,170.9 C403.94,155.85 403.23,141.46 406.13,127.59 L406.13,127.59 C409.08,113.45 415.77,99.84 428.54,86.64 C430.466667,84.64 432.543333,82.64 434.77,80.64 C445.097351,71.5795794 456.782905,64.1963879 469.4,58.76 C470.96,58.0933333 472.53,57.4266667 474.11,56.76 C509.19,42.56 551.34,39.6 590.72,41.56 C627.511424,43.4533783 664.068838,48.5391616 699.98,56.76 C702.83,57.4 705.68,58.07 708.51,58.76 C739.058435,66.1600885 769.116566,75.4547307 798.51,86.59 C874.89,115.32 946.98,155.21 1014.33,199.23 C1014.99,199.66 1015.65,200.09 1016.33,200.53 C1019.14333,202.363333 1021.94,204.203333 1024.72,206.05 C1030.1,209.616667 1035.43333,213.206667 1040.72,216.82 L1044.29,219.25 C1046.05,220.45 1047.8,221.653333 1049.54,222.86 L1054.9,226.57 L1054.9,226.57 C1055.15243,226.721728 1055.39311,226.892208 1055.62,227.08 L1060.18,230.24 C1062.82,232.08 1065.44,233.93 1068.07,235.79 L1068.07,235.79 L1073.71,239.79 C1074.88,240.63 1076.06,241.46 1077.23,242.31 L1083.23,246.69 L1084.57,247.69 C1084.85,247.89 1085.13,248.09 1085.4,248.31 L1085.57,248.42 C1101.83,260.35 1117.7,272.72 1132.57,285.83 L1134.49,287.53 L1134.69,287.71 C1136.31,289.15 1137.93,290.61 1139.52,292.08 C1158.94,309.76 1176.34,328.76 1190.56,349.76 C1255.88,446.76 1236.49,581.07 1145.62,660.94 Z" id="Path" fill="#993333" fill-rule="nonzero" opacity="0.1"></path>
            <path d="M1188.43,381.7 C1189.07,379.96 1184.29,370.3 1184.29,369.82 C1184.29,369.34 1179.29,363.97 1179.29,360.95 C1179.29,357.93 1172.76,351.45 1172.76,351.45 C1172.76,351.45 1163.98,347.8 1163.02,339.89 C1162.06,331.98 1152.86,331.81 1152.5,331.8 C1152.5,331.8 1152.5,331.08 1152.56,329.98 C1152.56,327.52 1152.49,323.13 1151.38,320.72 C1150.24719,318.5325 1148.30093,316.877105 1145.96,316.11 C1145.96,316.11 1144.96,309.94 1143.08,308.04 C1140.9084,305.763176 1140.06866,302.525249 1140.86,299.48 C1141.39,297.8 1140.93,294.69 1139.61,292.09 C1138.61,290.02 1136.99,288.25 1134.95,287.76 L1134.78,287.76 C1130.2,286.65 1125.07,284.95 1125.07,284.95 C1125.07,284.95 1124.55,285.05 1123.78,285.16 L1123.14,284.95 C1122.03588,285.15548 1120.92062,285.295723 1119.8,285.37 C1118.81988,285.402845 1117.8598,285.087542 1117.09,284.48 C1115.49,282.73 1102.57,279.41 1100.18,279.41 C1097.79,279.41 1090.92,276.24 1090.92,276.24 L1084.07,271.01 C1082.15,269.55 1078.59,263.61 1078.07,262.73 L1077.99,262.62 L1077.99,262.62 C1077.49099,261.486727 1077.07001,260.320677 1076.73,259.13 C1076.66,258.91 1076.61,258.69 1076.54,258.45 L1076.54,258.45 C1077.93159,256.993053 1079.20557,255.428158 1080.35,253.77 L1080.35,253.72 C1080.66,253.29 1080.95,252.82 1081.24,252.37 C1081.66,251.703333 1082.06,251.013333 1082.44,250.3 C1082.6,249.99 1082.75,249.67 1082.91,249.37 C1083.2492,249.355999 1083.58523,249.298873 1083.91,249.2 L1084.34,249.04 C1084.73473,248.858099 1085.10442,248.626198 1085.44,248.35 L1085.76,248.06 C1086.66068,247.209738 1087.34621,246.157449 1087.76,244.99 C1087.87,244.65 1087.97,244.3 1088.05,243.99 C1088.05,243.87 1088.11,243.74 1088.14,243.63 C1088.17,243.52 1088.25,243.15 1088.29,242.9 L1088.35,242.5 C1088.35,242.25 1088.43,242.02 1088.47,241.79 C1088.51,241.56 1088.47,241.51 1088.47,241.38 C1088.47,241.09 1088.55,240.78 1088.58,240.48 C1088.72,239.35 1088.84,238.24 1089.08,237.14 C1089.08472,237.123668 1089.08472,237.106332 1089.08,237.09 C1089.60371,234.970839 1090.39684,232.92753 1091.44,231.01 C1092.44,229.08 1093.54,227.18 1094.44,225.19 L1094.44,225.19 C1094.7,224.62 1094.95,224.04 1095.17,223.46 C1095.39,222.88 1095.61,222.18 1095.81,221.53 C1095.81,221.34 1095.9,221.14 1095.95,220.94 C1096.08147,220.469224 1096.18828,219.991908 1096.27,219.51 C1096.32333,219.303333 1096.36333,219.093333 1096.39,218.88 C1096.51,218.22 1096.59,217.56 1096.65,216.88 C1096.97259,213.093059 1096.41118,209.282945 1095.01,205.75 C1093.82,202.75 1092.01,200.1 1090.82,197.13 C1088.99,192.62 1088.51,187.52 1086.27,183.22 C1082.52,176.02 1073.67,172.42 1066.4,175.13 C1062.94,176.41 1059.93,178.92 1056.4,180.05 C1051.7,181.56 1046.65,180.42 1041.77,179.74 C1036.89,179.06 1031.49,179.01 1027.57,182.19 C1023.06,185.86 1021.82,192.76 1017.57,196.78 C1016.53787,197.712305 1015.42331,198.549067 1014.24,199.28 C1013.38,199.87 1012.51,200.45 1011.7,201.12 C1010.37808,202.166908 1009.35967,203.547802 1008.75,205.12 C1008.70736,205.231314 1008.67065,205.344806 1008.64,205.46 C1008.59404,205.594002 1008.55729,205.730988 1008.53,205.87 C1008.53,206.02 1008.48,206.18 1008.46,206.34 C1008.44,206.5 1008.46,206.56 1008.46,206.67 C1008.44501,206.909766 1008.44501,207.150234 1008.46,207.39 L1008.46,207.39 C1008.46,207.39 1008.46,207.47 1008.46,207.51 C1008.46,207.77 1008.54,208.04 1008.59,208.31 C1008.59,208.38 1008.59,208.45 1008.59,208.53 C1008.59,208.61 1008.71,208.98 1008.79,209.19 C1008.79566,209.233149 1008.79566,209.276851 1008.79,209.32 C1008.87369,209.565026 1008.97049,209.805374 1009.08,210.04 C1009.08,210.15 1009.17,210.28 1009.22,210.4 C1009.27854,210.49402 1009.32554,210.594744 1009.36,210.7 C1009.98019,211.868268 1010.47624,213.098321 1010.84,214.37 C1011.0355,215.180001 1010.98324,216.030045 1010.69,216.81 C1010.53543,217.19868 1010.31933,217.559962 1010.05,217.88 C1009.70297,218.316348 1009.3289,218.730495 1008.93,219.12 C1005.75526,222.423439 1003.30022,226.349464 1001.72,230.65 C1001.54,231.14 1001.37,231.65 1001.21,232.14 L1001.21,232.14 L1001.42,232.2 L1001.63,232.25 C1002.01866,232.367693 1002.41683,232.451342 1002.82,232.5 C1003.08479,232.544794 1003.35187,232.57484 1003.62,232.59 C1004.71338,232.647757 1005.80959,232.560329 1006.88,232.33 C1007.05871,232.299637 1007.23564,232.259578 1007.41,232.21 L1007.41,232.21 C1007.46547,232.201169 1007.51937,232.184327 1007.57,232.16 L1007.67,232.16 C1008.56626,231.927192 1009.4424,231.622884 1010.29,231.25 C1010.49,231.16 1010.7,231.08 1010.9,230.98 C1010.9,231.3 1010.9,231.63 1010.9,231.98 C1010.9,232.33 1010.9,232.34 1010.9,232.52 C1010.9,232.95 1010.9,233.36 1010.9,233.79 C1010.9,234.22 1010.9,234.39 1010.9,234.7 C1011.66041,247.49424 1018.8806,259.021676 1030.06,265.29 C1030.63,265.62 1031.19,265.93 1031.77,266.22 C1031.82,266.56 1031.87,266.91 1031.91,267.22 C1031.95,267.53 1031.99,267.79 1032.02,268.08 L1031.58,267.67 C1031.20462,267.507231 1030.79913,267.425452 1030.39,267.43 C1029.72481,267.425115 1029.06987,267.59402 1028.49,267.92 C1027.46872,268.507536 1026.61227,269.343353 1026,270.35 C1023.3,274.48 1018.18,276.35 1018.18,276.35 C1018.18,276.35 989.18,280.94 988.04,284.74 L974.48,285.54 C974.48,285.54 969.69,286.17 969.22,296.15 L969.22,296.26 C969.22,296.31 969.22,296.34 969.22,296.38 C969.15,297.57 969.06,298.63 968.95,299.58 C968.95,299.58 968.95,299.68 968.95,299.72 C968.11,306.37 966.21,307.08 966.21,307.08 C966.21,307.08 960.62,316.9 961.1,321.97 C961.10502,322.009843 961.10502,322.050157 961.1,322.09 L961.1,322.09 C961.165088,322.775912 961.121212,323.467804 960.97,324.14 C960.337831,326.415514 958.836561,328.351362 956.79,329.53 L956.16,338.53 C956.16,338.53 950.9,337.74 949.46,343.92 C948.02,350.1 945.46,352.92 945.46,352.92 C945.46,352.92 936.69,360.21 936.21,366.38 L930.78,369.71 C930.78,369.71 918.19,366.86 915.31,361.79 C915.31,361.79 914.97,361.45 914.43,360.96 L914.35,360.84 C914.347851,360.859942 914.347851,360.880058 914.35,360.9 C912.47,359.12 908.46,355.4 909.08,356.25 C909.452249,357.049769 909.543853,357.95172 909.34,358.81 L908.4,357.81 L905.89,355.01 C905.89,355.01 902.3,351.65 897.25,347.64 L897.25,347.64 C896.096667,346.72 894.88,345.78 893.6,344.82 C887.14,340.03 879.37,335.17 873.6,334.44 C873.48,334.2 873,332.39 871.87,332.39 C871.394753,332.430483 870.952115,332.648232 870.63,333 C867.220951,336.133465 865.271695,340.545686 865.250651,345.175998 C865.229946,349.806309 867.139341,354.235926 870.52,357.4 L871.83,358.62 L875.89,362.42 L889.59,375.22 C889.76,375.34 889.92,375.47 890.09,375.58 L890.9,376.58 L891.53,377.39 L892.62,378.78 L894.19,380.78 C894.11,380.99 894.02,381.19 893.95,381.39 C893.36,382.83 892.85,384.23 892.43,385.51 C892.43,385.51 892.43,385.61 892.43,385.65 C892.33,385.97 892.23,386.27 892.14,386.57 C892.14,386.67 892.07,386.78 892.04,386.88 C891.94,387.18 891.86,387.48 891.77,387.75 C891.68,388.02 891.67,388.1 891.63,388.27 C891.59,388.44 891.56,388.48 891.53,388.58 C891.08,390.17 890.8,391.39 890.65,392.07 L889.59,391.74 L890.59,392.19 C890.593545,392.246611 890.593545,392.303389 890.59,392.36 L890.53,392.68 C890.84,392.83 891.17,392.97 891.53,393.11 L891.76,393.21 L895.68,394.94 L895.68,394.94 C896.47,395.29 897.33,395.66 898.25,396.08 C899.17,396.5 899.88,396.81 900.77,397.19 L900.77,397.19 C911.01,401.75 925.36,408.3 926.38,409.61 C927.97,411.68 938.5,417.69 948.08,412.61 C957.66,407.53 959.71,399.77 959.71,399.77 C959.71,399.77 968.97,386.95 969.29,385.05 C969.53,383.59 973.81,381.94 975.79,381.25 L975.98,381.19 L976.78,380.93 C976.78,380.93 976.78,381.33 976.78,382.02 L976.78,382.07 C976.78,382.42 976.78,382.86 976.78,383.35 C976.78,387.81 976.72,397.51 975.32,404.56 C975.315321,404.579726 975.315321,404.600274 975.32,404.62 C975.00465,406.444081 974.470807,408.223556 973.73,409.92 C970.06,417.68 963.21,452.06 963.21,452.06 L963.37,452.06 C963.765709,451.988077 964.16909,451.967908 964.57,452 C964.43,452.64 964.34,453.14 964.27,453.48 C964.2,453.82 964.17,453.99 964.17,453.99 L964.29,453.99 C964.672153,453.917722 965.061929,453.894201 965.45,453.92 C965.581133,453.926148 965.711557,453.942869 965.84,453.97 C965.84,454.17 965.78,454.41 965.74,454.69 C965.74,454.69 965.74,454.79 965.74,454.84 C965.74,454.89 965.74,454.9 965.74,454.94 C965.74,454.98 965.68,455.25 965.66,455.42 C964.83,461.14 962.43,476.03 962.43,476.03 C962.43,476.03 961.43,484.26 959.87,487.11 C959.2,488.32 958.79,491.67 958.53,495.11 C958.53,495.61 958.46,496.11 958.42,496.63 C958.16,500.87 958.12,504.84 958.12,504.84 L958.05,505.1 L955.7,515.76 C955.738297,515.858846 955.781689,515.955643 955.83,516.05 L955.83,516.05 C956,516.37 956.27,516.92 956.66,517.6 L956.66,517.6 L956.78,517.86 C958.194227,520.74158 960.06503,523.375563 962.32,525.66 C962.842634,526.178898 963.40428,526.656965 964,527.09 L964,527.09 C964,527.21 963.95,527.34 963.93,527.44 C963.91,527.54 963.87,527.82 963.84,528 C963.636766,529.376348 963.25697,530.720758 962.71,532 C962.082774,533.377811 961.69392,534.852074 961.56,536.36 C961.439318,537.435534 961.405876,538.519071 961.46,539.6 L961.33,540.19 L961.33,540.19 C960.98,541.82 959.98,546.6 959.44,550.49 C959.31,551.38 959.19,552.24 959.12,553.04 C959.05297,553.781822 959.05297,554.528178 959.12,555.27 C959.181348,556.520226 959.114331,557.773447 958.92,559.01 C958.92,559.37 958.84,559.74 958.79,560.11 C958.25,563.63 957.36,567.32 957.36,567.32 L954.49,594.87 L954.49,595.36 C954.49,595.47 954.49,595.67 954.49,595.93 C954.49,596.19 954.49,596.29 954.49,596.5 C954.49,596.71 954.49,596.95 954.43,597.22 C954.43,597.87 954.33,598.64 954.26,599.54 C954.26,599.86 954.24,600.193333 954.2,600.54 C954.2,600.84 954.2,601.16 954.14,601.49 C954.14,601.66 954.14,601.83 954.14,602.01 C954.14,602.19 954.14,602.53 954.09,602.8 C954.04,603.07 954.09,603.31 954.09,603.56 C954.09,603.81 954.09,604.03 954.09,604.27 C954,605.74 953.9,607.33 953.83,608.94 C953.83,609.2 953.83,609.46 953.83,609.72 L953.83,610.48 C953.83,610.99 953.83,611.48 953.76,612.02 C953.76,612.36 953.76,612.71 953.76,613.02 C953.76,613.33 953.76,613.96 953.76,614.42 L953.76,614.76 C953.76,615.06 953.76,615.36 953.76,615.64 C953.76,616.31 953.76,616.96 953.76,617.59 C953.76,617.87 953.76,618.16 953.76,618.44 C953.76,619.346667 953.76,620.206667 953.76,621.02 C953.76,621.43 953.76,621.82 953.76,622.2 C953.781834,623.263589 953.861954,624.325182 954,625.38 C954.11,626.16 954.19,626.98 954.23,627.82 C954.23,628.21 954.23,628.6 954.23,628.98 C954.240001,629.173204 954.240001,629.366796 954.23,629.56 C954.23,629.75 954.23,629.96 954.23,630.15 C954.23,630.34 954.23,630.69 954.23,630.95 C954.23,631.37 954.23,631.78 954.23,632.19 C954.23,632.36 954.23,632.52 954.23,632.68 C954.23,632.84 954.23,633.27 954.23,633.56 L954.23,634.04 C953.98,637.48 953.51,640.27 953.44,640.71 C953.44,640.71 953.44,640.71 953.44,640.71 L953.44,640.71 C953.44,640.71 953.44,640.8 953.44,640.97 C953.44,641.14 953.44,641.12 953.44,641.21 C953.44,641.3 953.44,641.38 953.44,641.48 C953.44,641.58 953.44,641.59 953.44,641.65 C953.44,641.9 953.5,642.22 953.53,642.57 C953.53,642.73 953.53,642.89 953.53,643.07 L953.53,643.07 C953.53,643.25 953.53,643.45 953.59,643.65 C953.65,643.85 953.59,643.84 953.59,643.95 C953.59,644.31 953.65,644.68 953.69,645.07 C953.73,645.46 953.78,645.88 953.81,646.3 L953.87,647.09 C953.87,647.47 953.95,647.87 953.98,648.26 L953.98,648.66 C953.98,648.93 954.04,649.19 954.06,649.47 L954.15,650.7 C954.15,650.97 954.21,651.25 954.23,651.52 C954.25,651.79 954.23,651.8 954.23,651.94 L954.36,653.56 C954.36,653.83 954.36,654.09 954.41,654.36 C954.41,654.78 954.47,655.21 954.51,655.61 C954.55,656.01 954.51,656.53 954.58,656.95 C954.65,657.37 954.63,657.79 954.64,658.17 C954.753688,659.29714 954.753688,660.43286 954.64,661.56 C954.38,662.7 953.54,665.89 953.06,669.35 C953.06,669.66 952.97,669.97 952.94,670.29 C952.91,670.61 952.94,670.66 952.94,670.85 L952.88,671.6 C952.88,672.2 952.81,672.81 952.81,673.4 C952.764698,674.748122 952.916294,676.095642 953.26,677.4 C953.488989,678.267046 953.656076,679.149268 953.76,680.04 C953.76,680.18 953.76,680.33 953.81,680.48 C953.81,680.8 953.88,681.13 953.91,681.48 C953.94,681.83 953.96,682.16 953.98,682.48 C953.98,683.18 954.04,683.9 954.07,684.63 C954.07,685.11 954.07,685.63 954.07,686.08 C954.14,690.3 953.94,694.43 953.88,695.49 L953.88,695.57 C953.88,695.69 953.88,695.75 953.88,695.75 C953.88,695.75 954.88,713.5 955.95,719.19 C956.09,719.94 956.19,720.7 956.26,721.48 C956.26,721.77 956.26,722.06 956.31,722.35 C956.447674,725.645051 956.219614,728.945209 955.63,732.19 C955.63,732.19 954.51,744.38 954.04,744.38 C953.81,744.38 952.77,746.26 952.61,749.1 L952.61,749.18 C952.47,752.35 953.44,756.71 957.86,761.02 L958.34,761.49 L958.92,761.27 C963.6,759.6 968.24,757.86 972.87,756.09 C975.33,755.14 977.79,754.19 980.24,753.21 C986.293333,750.816667 992.293333,748.356667 998.24,745.83 L998.24,745.83 C997.957463,745.680524 997.750651,745.419297 997.67,745.11 C996.75,742.66 998.12,735.11 998.4,733.95 C998.68,732.79 1001.27,708.12 1001.27,708.12 C1001.27,708.12 1000.27,700.37 1001.59,697.05 C1002.91,693.73 999.99,680.88 999.99,680.88 C999.99,680.88 998.99,679.3 1000.79,677.4 C1002.59,675.5 1001.91,658.55 1001.91,658.55 C1001.91,658.55 1001.75,649.99 1001.75,647.77 C1001.75,645.55 1003.67,637.47 1005.41,634.77 C1007.15,632.07 1006.06,623.67 1006.06,623.67 L1006.06,623.67 L1006.16,623.03 C1006.16,622.79 1006.24,622.49 1006.3,622.14 L1006.45,621.29 C1007.2073,616.648771 1008.24249,612.057181 1009.55,607.54 C1011.63,600.89 1014.02,589.17 1014.02,589.17 L1027.97,551.76 L1027.97,551.76 L1028.43,550.6 L1028.6,550.14 C1028.6,550.14 1035.45,562.82 1035.45,574.54 C1035.45,574.54 1037.21,588.64 1036.74,592.44 C1036.27,596.24 1038.17,614.14 1038.17,614.14 C1038.17,614.14 1040.23,639.81 1040.23,640.91 C1040.23,642.01 1042.79,661.76 1044.39,664.76 C1045.99,667.76 1042.79,676.96 1041.84,677.91 C1040.89,678.86 1042.16,702.15 1042.16,702.15 C1042.16,702.15 1039.75,720.52 1039.28,724.32 C1039.19,725.01 1039.05,726.05 1038.9,727.32 C1054.9,719.64 1070.75,711.53 1086.01,702.72 C1086.67,702.35 1087.32,701.98 1088.01,701.58 L1088.12,678.85 C1088.12,678.85 1089.24,668.24 1087.96,663.95 C1086.68,659.66 1085.41,651.45 1087.17,649.23 C1088.93,647.01 1087.33,636.72 1087.33,636.72 C1087.33,636.72 1087.33,615.01 1089.72,609.63 C1092.11,604.25 1091.32,570.19 1091.32,570.19 L1091.95,547.85 C1091.95,547.85 1097.04,543.03 1095.95,518.06 C1095.95,517.79 1095.95,517.5 1095.95,517.21 C1101.51,516.86 1107.78,516.66 1108.73,517.44 C1110.25,518.66 1118.81,524.2 1125.44,522.82 L1125.44,522.82 C1126.53636,522.611189 1127.57798,522.178881 1128.5,521.55 C1129.94,520.91 1136.5,515.37 1136.5,515.37 L1133.96,472.64 L1133.96,472.64 L1133.69,467.89 C1134.17,468.62 1134.59,469.27 1134.95,469.89 C1135.95,471.41 1136.5,472.34 1136.5,472.34 C1136.5,465.69 1155.33,444.15 1155.33,444.15 C1155.33,444.15 1172.88,421.5 1176.7,418.8 C1180.52,416.1 1188.03,401.85 1188.03,401.85 C1189.13709,399.131306 1190.41635,396.485943 1191.86,393.93 C1193.56,391.05 1187.79,383.44 1188.43,381.7 Z M1132.28,412.11 C1131.93055,413.684366 1131.20292,415.149933 1130.16,416.38 C1130.08,415.38 1130,414.45 1129.92,413.45 C1129.92,413.37 1129.92,413.27 1129.92,413.19 C1128.8,399.25 1127.6,382.39 1128.15,380.74 C1128.6,379.42 1128.76,375.92 1128.81,372.56 L1128.81,372.56 C1128.88,368.73 1128.81,365.08 1128.81,365.08 L1128.81,365.08 L1128.99,364.83 C1132.21,374.83 1142.2,386.49 1142.2,386.49 C1142.2,386.49 1143.96,391.56 1146.03,391.72 C1148.1,391.88 1147.3,398.37 1147.3,398.37 C1146.3372,398.52432 1145.41348,398.863925 1144.58,399.37 C1143.59565,399.93859 1142.65324,400.576887 1141.76,401.28 L1141.76,401.28 C1137.18,404.76 1132.39,410.49 1132.28,412.11 L1132.28,412.11 Z" id="Shape" fill="url(#linearGradient-1)" fill-rule="nonzero"></path>
            <path d="M891.56,394.76 C891.56,394.76 897.38,364.26 916.08,364.1 L929.76,392.24 L920.56,398.49 C920.56,398.49 900.8,399.12 891.56,394.76 Z" id="Path" fill="#65617D" fill-rule="nonzero"></path>
            <path d="M929.72,392.2 L920.56,398.49 C920.56,398.49 906.62,398.93 896.66,396.49 C894.907137,396.082831 893.198827,395.503345 891.56,394.76 C891.56,394.76 891.56,394.59 891.66,394.27 C891.656565,394.230074 891.656565,394.189926 891.66,394.15 C892.52142,390.323349 893.70566,386.576603 895.2,382.95 C895.77,381.58 896.43,380.17 897.13,378.76 C899.87,373.49 903.72,368.32 908.99,365.76 C910.936853,364.805743 913.055263,364.251487 915.22,364.13 L915.78,364.13 L916.05,364.13 L916.36,364.75 L920.98,374.26 L929.72,392.2 Z" id="Path" fill="#000000" fill-rule="nonzero" opacity="0.1"></path>
            <path d="M1085.04,518.91 C1085.04,518.91 1104.69,517.03 1106.42,518.44 C1108.15,519.85 1119.31,527.09 1125.92,522.53 C1132.53,517.97 1128.12,502.09 1128.12,501.46 C1128.12,500.83 1127.49,478.35 1127.49,478.35 L1115.7,462.47 L1100.92,434.65 L1070.74,431.65 L1071.52,475.83 L1071.37,498.47 L1085.04,518.91 Z" id="Path" fill="#65617D" fill-rule="nonzero"></path>
            <path d="M1085.04,518.91 C1085.04,518.91 1104.69,517.03 1106.42,518.44 C1108.15,519.85 1119.31,527.09 1125.92,522.53 C1132.53,517.97 1128.12,502.09 1128.12,501.46 C1128.12,500.83 1127.49,478.35 1127.49,478.35 L1115.7,462.47 L1100.92,434.65 L1070.74,431.65 L1071.52,475.83 L1071.37,498.47 L1085.04,518.91 Z" id="Path" fill="#000000" fill-rule="nonzero" opacity="0.1"></path>
            <path d="M912.11,363.28 C912.11,363.28 910.56,382.46 898.56,382.76 C898.56,382.76 895.18,380.76 890.62,377.31 C880.12,369.46 863.47,354.36 868.07,340.31 C874.67,320.19 906.74,357.31 906.74,357.31 L909.21,360.07 L912.11,363.28 Z" id="Path" fill="#A5636D" fill-rule="nonzero"></path>
            <path d="M912.11,363.28 C912.11,363.28 910.56,382.46 898.56,382.76 C898.56,382.76 895.18,380.76 890.62,377.31 L889.62,376 C891.647272,377.062794 893.883351,377.667047 896.17,377.77 C899.17,377.83 902.55,376.77 904.72,372.38 C905.974124,369.91162 907.079432,367.370413 908.03,364.77 C908.596494,363.243749 908.998764,361.661486 909.23,360.05 L912.11,363.28 Z" id="Path" fill="#000000" fill-rule="nonzero" opacity="0.1"></path>
            <path d="M906.92,398.02 L904.23,394.56 L895.23,382.91 L890.56,376.96 C892.584929,378.018212 894.817468,378.619018 897.1,378.72 C900.1,378.79 903.48,377.72 905.65,373.33 C906.908347,370.863611 908.013768,368.322144 908.96,365.72 C910.45,361.48 910.42,359.3 909.89,358.56 C909.36,357.82 913.23,361.41 915.09,363.18 L915.16,363.24 L916.02,364.06 L916.35,364.7 L920.9,373.81 C920.9,373.81 920.9,373.94 920.9,374.19 C921.32,377.08 922.85,395.42 906.92,398.02 Z" id="Path" fill="#E7EFFD" fill-rule="nonzero"></path>
            <path d="M998.18,745.76 C997.893424,745.515373 997.577694,745.307126 997.24,745.14 L997.16,745.14 C995.28,744.35 997,734.6 997.32,733.34 C997.64,732.08 1000.15,707.76 1000.15,707.76 C1000.15,707.76 999.21,700.07 1000.47,696.76 C1001.73,693.45 998.89,680.76 998.89,680.76 C998.89,680.76 997.95,679.19 999.68,677.3 C1001.41,675.41 1000.78,658.59 1000.78,658.59 C1000.78,658.59 1000.63,650.11 1000.63,647.9 C1000.63,645.69 1002.51,637.69 1004.24,635.01 C1005.97,632.33 1004.87,624.01 1004.87,624.01 L1004.87,624.01 L1004.96,623.37 C1005.01,623.14 1005.05,622.84 1005.1,622.49 L1005.25,621.65 C1005.25,621.45 1005.32,621.24 1005.36,621.01 C1005.45,620.51 1005.55,620.01 1005.66,619.37 C1005.72,619.01 1005.79,618.63 1005.87,618.25 C1006.1,617.05 1006.37,615.73 1006.66,614.38 C1006.75,613.96 1006.85,613.53 1006.95,613.11 C1007.05,612.69 1007.19,612.11 1007.32,611.59 C1007.4,611.28 1007.47,610.98 1007.56,610.67 C1007.79,609.75 1008.04,608.86 1008.31,608.01 C1010.31,601.4 1012.72,589.77 1012.72,589.77 L1027.33,551.39 L1027.5,550.93 L1027.96,551.82 L1027.96,551.82 C1029.48,554.89 1034.25,565.34 1034.25,575.13 C1034.25,575.13 1035.99,589.13 1035.51,592.89 C1035.03,596.65 1036.93,614.43 1036.93,614.43 C1036.93,614.43 1038.93,639.89 1038.93,640.99 C1038.93,642.09 1041.45,661.75 1043.02,664.73 C1044.59,667.71 1041.45,676.84 1040.5,677.73 C1039.55,678.62 1040.82,701.79 1040.82,701.79 C1040.82,701.79 1038.46,720.02 1037.98,723.79 C1037.88,724.69 1037.68,726.2 1037.47,728.05 L1038.68,727.48 L1038.85,727.39 C1054.85,719.71 1070.7,711.6 1085.96,702.79 L1086.09,678.68 C1086.09,678.68 1087.19,668.14 1085.94,663.9 C1084.69,659.66 1083.42,651.48 1085.14,649.27 C1086.86,647.06 1085.31,636.86 1085.31,636.86 C1085.31,636.86 1085.31,615.32 1087.66,609.98 C1090.01,604.64 1089.24,570.83 1089.24,570.83 L1089.86,548.67 C1089.86,548.67 1094.99,543.78 1093.78,518.26 C1093.65,515.54 1093.45,512.59 1093.17,509.37 C1092.3,499.74 1091.42,491.02 1090.62,483.47 C1090.55,482.82 1090.48,482.18 1090.41,481.56 C1090.33,480.72 1090.23,479.89 1090.15,479.08 C1089.96,477.37 1089.78,475.73 1089.6,474.17 C1089.54,473.71 1089.49,473.26 1089.44,472.81 C1089.18,470.57 1088.93667,468.503333 1088.71,466.61 C1088.63,465.87 1088.53,465.14 1088.45,464.45 C1088.32,463.45 1088.2,462.45 1088.09,461.52 C1088.09,461.3 1088.03,461.08 1088,460.86 C1088,460.46 1087.91,460.08 1087.86,459.71 C1087.34,455.63 1087.03,453.4 1087.03,453.4 L1086.89,453.4 L1071.08,453.54 L1036.57,453.87 L1035.56,453.87 L1017.56,454.04 L1016.46,454.04 L1007.82,454.13 L1006.35,454.13 L988.35,454.3 L987.26,454.3 L979.87,484.76 L964.78,519.35 C964.78,519.35 964.55,523.14 964.02,526.84 L964.02,527.06 C964.02,527.19 964.02,527.31 963.96,527.42 C963.9,527.53 963.9,527.8 963.87,527.98 C963.661292,529.658326 963.23435,531.302219 962.6,532.87 C962.098545,533.964464 961.761573,535.12702 961.6,536.32 C961.402164,537.586497 961.325151,538.86893 961.37,540.15 L961.37,540.15 C961.37,540.29 961.37,540.36 961.37,540.36 C961.37,540.36 960.17,545.81 959.47,550.45 C959.34,551.34 959.22,552.2 959.15,553 C959.014439,553.970387 958.967579,554.951108 959.01,555.93 C959.064959,556.931261 959.028139,557.935452 958.9,558.93 C958.9,559.29 958.82,559.66 958.77,560.03 C958.28,563.71 957.29,567.83 957.29,567.83 L954.45,595.19 C954.45218,595.21996 954.45218,595.25004 954.45,595.28 C954.45,595.39 954.45,595.59 954.45,595.85 C954.45,596.11 954.45,596.21 954.45,596.42 C954.45,596.63 954.45,596.87 954.39,597.14 C954.39,597.79 954.29,598.56 954.22,599.46 C954.22,599.78 954.2,600.113333 954.16,600.46 C954.16,600.76 954.16,601.08 954.1,601.41 C954.1,601.58 954.1,601.75 954.1,601.93 C954.1,602.11 954.1,602.45 954.05,602.72 C954,602.99 954.05,603.23 954.05,603.48 C954.05,603.73 954.05,603.95 954.05,604.19 C953.97,605.66 953.87,607.25 953.8,608.86 C953.8,609.12 953.8,609.38 953.8,609.64 L953.8,610.4 C953.8,610.91 953.8,611.4 953.73,611.94 C953.73,612.28 953.73,612.63 953.73,612.94 C953.73,613.25 953.73,613.88 953.73,614.34 L953.73,614.76 C953.73,615.06 953.73,615.36 953.73,615.64 C953.73,616.31 953.73,616.96 953.73,617.59 C953.73,617.87 953.73,618.16 953.73,618.44 C953.73,619.346667 953.73,620.206667 953.73,621.02 C953.73,621.43 953.73,621.82 953.73,622.2 C953.741479,623.3172 953.82163,624.432637 953.97,625.54 C954.07,626.28 954.15,627.04 954.2,627.82 C954.2,628.21 954.2,628.6 954.2,628.98 C954.2,629.36 954.2,629.76 954.2,630.15 C954.2,630.54 954.2,630.69 954.2,630.95 C954.2,631.37 954.2,631.78 954.2,632.19 C954.2,632.36 954.2,632.52 954.2,632.68 C954.2,632.84 954.2,633.27 954.2,633.56 L954.2,634.04 C953.95,637.48 953.48,640.27 953.41,640.71 C953.41,640.71 953.41,640.71 953.41,640.71 L953.41,640.71 C953.41,640.71 953.41,640.8 953.41,640.97 C953.41,641.14 953.41,641.12 953.41,641.21 C953.41,641.3 953.41,641.38 953.41,641.48 C953.41,641.58 953.41,641.59 953.41,641.65 C953.41,641.9 953.47,642.22 953.5,642.57 C953.5,642.73 953.5,642.89 953.5,643.07 L953.5,643.07 C953.5,643.25 953.5,643.45 953.56,643.65 C953.62,643.85 953.56,643.84 953.56,643.95 C953.56,644.31 953.62,644.68 953.66,645.07 C953.7,645.46 953.74,645.88 953.78,646.3 L953.84,647.09 C953.84,647.47 953.92,647.87 953.95,648.26 L953.95,648.66 C953.95,648.93 954.01,649.19 954.03,649.47 L954.12,650.7 C954.12,650.97 954.18,651.25 954.2,651.52 L954.2,651.94 L954.33,653.56 C954.33,653.83 954.33,654.09 954.38,654.36 C954.38,654.78 954.44,655.21 954.48,655.61 C954.52,656.01 954.48,656.53 954.55,656.95 C954.62,657.37 954.6,657.79 954.61,658.17 C954.711063,659.260998 954.711063,660.359002 954.61,661.45 C953.951886,664.054169 953.431167,666.691143 953.05,669.35 C953.05,669.66 952.96,669.97 952.93,670.29 C952.9,670.61 952.93,670.66 952.93,670.85 L952.87,671.6 C952.87,672.2 952.8,672.81 952.8,673.4 C952.775329,674.67141 952.926766,675.940117 953.25,677.17 C953.5211,678.260327 953.705014,679.370497 953.8,680.49 C953.88,681.13 953.93,681.81 953.97,682.49 C954.01,683.17 954.03,683.91 954.06,684.64 C954.06,685.12 954.06,685.64 954.06,686.09 C954.12,690.84 953.86,695.38 953.86,695.38 C953.857796,695.41997 953.857796,695.46003 953.86,695.5 L953.86,695.58 C953.96,697.58 954.86,713.35 955.86,718.65 C956.033048,719.588863 956.149922,720.537215 956.21,721.49 C956.21,721.78 956.21,722.07 956.26,722.36 C956.332904,725.439413 956.095034,728.518328 955.55,731.55 C955.55,731.55 954.08,743.76 953.61,743.76 C953.37,743.76 952.17,745.98 952.199447,749.23 L952.199447,749.31 C952.199447,752.37 953.38,756.31 957.39,760.31 L958.51,761.43 C963.19,759.76 967.83,758.02 972.46,756.25 C974.92,755.3 977.38,754.35 979.83,753.37 C985.883333,750.976667 991.883333,748.516667 997.83,745.99 L998.18,745.76 Z" id="Path" fill="#3F3D56" fill-rule="nonzero"></path>
            <path d="M1080.64,273.35 L1057.37,298.2 C1057.37,298.2 1027.51,286.2 1030.65,282.2 C1031.87,280.62 1031.65,275.63 1030.97,270.12 C1029.87,261.41 1027.51,251.38 1027.51,251.38 C1027.51,251.38 1079.7,242.89 1075.29,251.7 C1073.69,254.91 1073.96,258.7 1074.96,262.14 C1076.24426,266.155312 1078.16176,269.939668 1080.64,273.35 Z" id="Path" fill="#A5636D" fill-rule="nonzero"></path>
            <path d="M1075.29,251.66 C1073.69,254.87 1072.92,255.18 1073.92,258.66 C1067.1,265.98 1058.42,273.990064 1047.63,273.990064 C1041.84924,274.000688 1036.14536,272.665447 1030.97,270.09 C1029.87,261.38 1027.51,251.35 1027.51,251.35 C1027.51,251.35 1079.7,242.85 1075.29,251.66 Z" id="Path" fill="#000000" fill-rule="nonzero" opacity="0.1"></path>
            <path d="M1085.05,235.62 C1085.05,256.286495 1068.2965,273.04 1047.63,273.04 C1026.9635,273.04 1010.21,256.286495 1010.21,235.62 C1010.21,235.44 1010.21,235.26 1010.21,235.08 C1010.65757,214.632439 1027.43914,198.332257 1047.89107,198.479845 C1068.34299,198.627434 1084.88758,215.168109 1085.04,235.62 L1085.05,235.62 Z" id="Path" fill="#A5636D" fill-rule="nonzero"></path>
            <path d="M1090.46,482.46 C1085.46,482.46 1069,482.64 1050.56,482.93 L1050.33,482.93 L1044.24,483.03 L1044.05,483.03 C1022.18,483.38 1000.63,479.11 991.98,479.92 C973.58,481.65 998.58,462.92 998.58,462.92 C1012.28661,466.24539 1026.38507,467.67206 1040.48,467.16 L1045.77,466.88 C1062.48,465.94 1079.28,464.37 1088.06,461.73 C1088.67,466.61 1089.56,473.68 1090.46,482.46 Z" id="Path" fill="#000000" fill-rule="nonzero" opacity="0.1"></path>
            <path d="M1090.46,481.52 C1085.46,481.52 1069,481.69 1050.56,481.99 L1050.33,481.99 L1044.24,482.09 L1044.05,482.09 C1022.18,482.44 1000.63,478.17 991.98,478.98 C973.58,480.7 998.58,461.98 998.58,461.98 C1012.28654,465.305154 1026.38543,466.728502 1040.48,466.21 L1045.77,465.94 C1062.48,465 1079.28,463.42 1088.06,460.79 C1088.67,465.67 1089.56,472.76 1090.46,481.52 Z" id="Path" fill="#5F5D7E" fill-rule="nonzero"></path>
            <path d="M1037.56,283.76 L1008.63,297.28 L986.32,469.86 C986.32,469.86 999.52,463.86 1007.07,467.66 C1014.62,471.46 1037.88,467.98 1037.88,467.98 C1037.88,467.98 1054.88,466.98 1057.37,468.92 C1059.86,470.86 1089.45,461.06 1089.45,461.06 C1089.45,461.06 1094.79,449.11 1090.7,447.23 C1086.61,445.35 1091.96,426.76 1091.96,426.76 L1089.45,302.25 L1084.45,286.25 L1070.93,278.08 L1057.1,289.08 L1050.5,290.03 L1037.56,283.76 Z" id="Path" fill="#000000" fill-rule="nonzero" opacity="0.1"></path>
            <path d="M1037.56,281.84 L1008.64,295.36 L986.32,467.98 C986.32,467.98 999.52,461.98 1007.07,465.78 C1014.62,469.58 1037.88,466.09 1037.88,466.09 C1037.88,466.09 1054.88,465.15 1057.37,467.03 C1059.86,468.91 1089.45,459.17 1089.45,459.17 C1089.45,459.17 1094.79,447.23 1090.7,445.34 C1086.61,443.45 1091.96,424.9 1091.96,424.9 L1089.45,300.39 L1084.45,284.39 L1070.93,276.21 L1057.1,287.21 L1050.5,288.15 L1037.56,281.84 Z" id="Path" fill="#E7EFFD" fill-rule="nonzero"></path>
            <path d="M1037.09,289.86 C1037.09,289.86 1045.43,299.76 1045.27,301.81 C1045.11,303.86 1044.8,308.72 1044.8,308.72 L1038.56,321.46 C1038.56,321.46 1035.1,337.34 1035.1,340.64 C1035.1,343.94 1029.6,372.55 1029.6,372.55 L1023,416.55 L1014.66,474.25 L1023.15,488.87 L1033.21,480.38 L1046.56,377.58 L1049.39,357.3 C1049.39,357.3 1052.39,320.83 1052.39,317.06 C1052.39,313.29 1050.66,303.38 1050.66,303.38 C1050.66,303.38 1052.71,293.95 1061.2,291.75 C1069.69,289.55 1060.57,291.27 1060.57,291.27 L1055.7,287.34 L1051.45,289.07 C1051.45,289.07 1039.61,285.46 1037.09,289.86 Z" id="Path" fill="#000000" fill-rule="nonzero" opacity="0.1"></path>
            <path d="M1036.15,288.92 C1036.15,288.92 1044.48,298.82 1044.33,300.86 C1044.18,302.9 1043.85,307.78 1043.85,307.78 L1037.56,320.52 C1037.56,320.52 1034.1,336.39 1034.1,339.69 C1034.1,342.99 1028.6,371.61 1028.6,371.61 L1021.99,415.61 L1013.66,473.3 L1022.15,487.92 L1032.21,479.43 L1045.56,376.64 L1048.39,356.36 C1048.39,356.36 1051.39,319.89 1051.39,316.11 C1051.39,312.33 1049.66,302.44 1049.66,302.44 C1049.66,302.44 1051.66,293 1060.19,290.8 C1068.72,288.6 1059.57,290.33 1059.57,290.33 L1054.69,286.4 L1050.45,288.13 C1050.45,288.13 1038.67,284.51 1036.15,288.92 Z" id="Path" fill="#993333" fill-rule="nonzero"></path>
            <path d="M1030.65,272.41 C1030.65,272.41 1029.39,273.35 1029.08,279.64 C1028.77,285.93 1024.36,300.08 1024.36,300.08 C1024.36,300.08 1040.71,288.76 1048.89,290.02 L1030.65,272.41 Z" id="Path" fill="#000000" fill-rule="nonzero" opacity="0.1"></path>
            <path d="M1030.65,270.52 C1030.65,270.52 1029.39,271.47 1029.08,277.75 C1028.77,284.03 1024.36,298.19 1024.36,298.19 C1024.36,298.19 1040.71,286.87 1048.89,288.13 L1030.65,270.52 Z" id="Path" fill="#E7EFFD" fill-rule="nonzero"></path>
            <path d="M1075.3,267.38 L1049.56,290.02 C1049.56,290.02 1071.26,302.91 1074.09,306.02 C1076.92,309.13 1079.75,275.21 1079.75,275.21 L1075.3,267.38 Z" id="Path" fill="#000000" fill-rule="nonzero" opacity="0.1"></path>
            <path d="M1076.24,265.49 L1050.46,288.13 C1050.46,288.13 1072.15,301.02 1074.98,304.13 C1077.81,307.24 1080.64,273.31 1080.64,273.31 L1076.24,265.49 Z" id="Path" fill="#E7EFFD" fill-rule="nonzero"></path>
            <path d="M1031.56,272.41 C1031.56,272.41 1028.73,270.99 1026.06,275.08 C1023.39,279.17 1018.36,281.08 1018.36,281.08 C1018.36,281.08 989.74,285.64 988.64,289.41 L975.28,290.19 C975.28,290.19 970.56,290.76 970.12,300.76 C969.68,310.76 967.12,311.6 967.12,311.6 C967.12,311.6 961.61,321.35 962.12,326.38 C962.63,331.41 957.87,333.93 957.87,333.93 L977.56,384.97 C977.56,384.97 978.19,406.04 974.56,413.74 C970.93,421.44 964.18,455.56 964.18,455.56 C964.18,455.56 967.01,454.93 966.85,456.82 C966.69,458.71 963.39,479.3 963.39,479.3 C963.39,479.3 962.45,487.47 960.88,490.3 C959.31,493.13 959.15,507.91 959.15,507.91 L956.56,518.6 C956.56,518.6 962.56,531.96 971.66,530.07 C980.76,528.18 997.28,492.5 997.28,492.5 L1007.81,453.99 L1015.99,415.94 L1018.35,390.16 L1022.12,333.09 L1027.62,295.36 C1027.62,295.36 1033.79,275.08 1031.56,272.41 Z" id="Path" fill="#000000" fill-rule="nonzero" opacity="0.1"></path>
            <path d="M1030.65,270.52 C1030.65,270.52 1027.82,269.11 1025.15,273.2 C1022.48,277.29 1017.44,279.2 1017.44,279.2 C1017.44,279.2 988.83,283.76 987.73,287.53 L974.37,288.32 C974.37,288.32 969.65,288.95 969.18,298.85 C968.71,308.75 966.18,309.7 966.18,309.7 C966.18,309.7 960.68,319.45 961.18,324.48 C961.68,329.51 956.94,332.02 956.94,332.02 L976.56,383.08 C976.56,383.08 977.19,404.15 973.56,411.85 C969.93,419.55 963.19,453.67 963.19,453.67 C963.19,453.67 966.02,453.04 965.86,454.93 C965.7,456.82 962.4,477.41 962.4,477.41 C962.4,477.41 961.46,485.58 959.89,488.41 C958.32,491.24 958.16,506.02 958.16,506.02 L955.66,516.76 C955.66,516.76 961.66,530.12 970.75,528.24 C979.84,526.36 996.38,490.66 996.38,490.66 L1006.91,452.15 L1015.09,414.15 L1017.44,388.37 L1021.22,331.31 L1026.72,293.58 C1026.72,293.58 1032.85,273.2 1030.65,270.52 Z" id="Path" fill="#65617D" fill-rule="nonzero"></path>
            <path d="M929.72,392.2 L920.56,398.49 C920.56,398.49 906.62,398.93 896.66,396.49 L891.58,394.24 L890.58,393.79 L891.63,394.12 C896.89,395.68 901,395.65 904.21,394.57 C917.12,390.23 915.69,368.92 915.21,364.1 C915.21,363.62 915.13,363.31 915.11,363.19 C915.107851,363.170058 915.107851,363.149942 915.11,363.13 L915.19,363.25 C915.361599,363.543658 915.559048,363.821425 915.78,364.08 C915.960258,364.295377 916.153979,364.499119 916.36,364.69 L916.36,364.69 L920.91,373.8 C920.91,373.8 920.91,373.93 920.91,374.18 L929.72,392.2 Z" id="Path" fill="#000000" fill-rule="nonzero" opacity="0.1"></path>
            <path d="M961.32,330.76 L956.92,332.02 L956.29,341.02 C956.29,341.02 951.1,340.24 949.69,346.37 C948.28,352.5 945.76,355.37 945.76,355.37 C945.76,355.37 937.11,362.6 936.64,368.73 L931.29,372.03 C931.29,372.03 918.87,369.2 916.04,364.17 C916.04,364.17 921.7,404.73 891.52,394.83 C891.52,394.83 925.32,409.61 926.89,411.65 C928.46,413.69 938.84,419.65 948.27,414.65 C957.7,409.65 959.75,401.76 959.75,401.76 C959.75,401.76 968.87,389.03 969.18,387.14 C969.49,385.25 976.57,383.05 976.57,383.05 L990.09,350.36 L961.32,330.76 Z" id="Path" fill="#65617D" fill-rule="nonzero"></path>
            <path d="M1071.68,286.24 L1076.24,265.49 C1076.24,265.49 1078.24,272.25 1080.33,273.82 C1082.42,275.39 1087.09,279.01 1087.09,279.01 C1087.09,279.01 1093.85,282.16 1096.2,282.16 C1098.55,282.16 1111.3,285.46 1112.87,287.16 C1114.44,288.86 1120.73,287.63 1120.73,287.63 C1120.73,287.63 1125.92,289.36 1130.48,290.46 C1135.04,291.56 1137.24,299.11 1136.29,302.09 C1135.5193,305.110017 1136.34963,308.314326 1138.49,310.58 C1140.38,312.47 1141.32,318.58 1141.32,318.58 C1143.63555,319.333842 1145.55883,320.973128 1146.67,323.14 C1148.24,326.6 1147.77,334.14 1147.77,334.14 L1124.35,367.14 C1124.35,367.14 1124.66,379.87 1123.72,382.7 C1122.78,385.53 1127.02,433.64 1127.02,433.64 L1131.89,516.33 C1131.89,516.33 1125.45,521.83 1124.03,522.46 C1122.61,523.09 1121.2,493.22 1121.2,492.12 C1121.2,491.02 1084.89,437.72 1084.89,437.72 C1084.89,437.72 1080.01,429.86 1080.01,428.13 C1080.01,426.4 1075.45,410.53 1075.45,410.53 L1068.56,379.94 L1071.68,286.24 Z" id="Path" fill="#000000" fill-rule="nonzero" opacity="0.1"></path>
            <path d="M1149.72,332.39 C1149.72,333.47 1149.66,334.19 1149.66,334.19 L1126.25,367.19 L1126.25,367.19 C1126.25,367.19 1126.57,379.93 1125.63,382.76 C1125.08,384.4 1126.28,401.32 1127.39,415.21 C1128.18,425.21 1128.93,433.69 1128.93,433.69 L1130.99,468.77 L1133.79,516.39 C1133.79,516.39 1127.35,521.89 1125.94,522.52 C1124.53,523.15 1123.11,493.28 1123.11,492.17 C1123.11,491.06 1086.77,437.76 1086.77,437.76 C1086.77,437.76 1081.9,429.89 1081.9,428.16 C1081.9,426.43 1077.34,410.55 1077.34,410.55 L1070.43,379.9 L1073.57,286.2 L1076.24,265.45 C1076.24,265.45 1080.17,272.22 1082.24,273.78 C1084.31,275.34 1088.99,278.97 1088.99,278.97 C1088.99,278.97 1095.75,282.12 1098.11,282.12 C1100.47,282.12 1113.2,285.42 1114.78,287.12 C1116.36,288.82 1122.64,287.59 1122.64,287.59 C1122.64,287.59 1127.82,289.32 1132.38,290.42 C1136.94,291.52 1139.14,299.07 1138.2,302.05 C1137.42342,305.070025 1138.25449,308.277172 1140.4,310.54 C1142.28,312.42 1143.23,318.54 1143.23,318.54 C1145.54392,319.296737 1147.46623,320.935188 1148.58,323.1 C1149.65,325.58 1149.75,329.94 1149.72,332.39 Z" id="Path" fill="#65617D" fill-rule="nonzero"></path>
            <path d="M979.83,753.29 C977.38,754.29 974.92,755.22 972.46,756.17 C964.75,753.92 957.55,751.27 957.55,751.27 C965.007931,751.536781 972.445698,752.211121 979.83,753.29 Z" id="Path" fill="#000000" fill-rule="nonzero" opacity="0.1"></path>
            <path d="M1054.23,669.36 C1054.23,669.36 1072.94,673.76 1074.04,676.75 L1054.23,669.36 Z" id="Path" fill="#000000" fill-rule="nonzero" opacity="0.1"></path>
            <path d="M982.07,682.88 C982.07,682.88 972.32,685.71 981.76,691.37 C991.2,697.03 982.07,682.88 982.07,682.88 Z" id="Path" fill="#000000" fill-rule="nonzero" opacity="0.1"></path>
            <path d="M1025.3,531.76 C1026.4,531.76 1043.54,526.1 1049.51,528.62 C1055.48,531.14 1062.88,531.13 1062.88,531.13 L1025.3,531.76 Z" id="Path" fill="#000000" fill-rule="nonzero" opacity="0.1"></path>
            <path d="M1027.56,549.76 L1027.39,551.32 L1012.73,589.66 C1012.73,589.66 1010.37,601.29 1008.32,607.89 C1007.03438,612.376355 1006.01263,616.93416 1005.26,621.54 L1018.26,541.08 L1027.56,549.76 Z" id="Path" fill="#000000" fill-rule="nonzero" opacity="0.1"></path>
            <path d="M1050.33,481.99 L1044.24,482.09 L1044.05,482.09 L1040.48,466.24 C1042.23,466.16 1044,466.07 1045.77,465.96 L1050.33,481.99 Z" id="Path" fill="#3F3D56" fill-rule="nonzero"></path>
            <path d="M1124.5,462.76 L1120.59,465.99 L1107.56,476.76 C1107.56,476.76 1072.19,495.63 1062.45,477.7 C1053.86,461.91 1093.96,450.64 1103.62,448.18 C1104.93,447.85 1105.68,447.68 1105.68,447.68 L1124.5,462.76 Z" id="Path" fill="#A5636D" fill-rule="nonzero"></path>
            <path d="M973.43,308.25 C973.43,308.25 980.34,311.4 981.91,315.8 C983.48,320.2 973.43,308.25 973.43,308.25 Z" id="Path" fill="#000000" fill-rule="nonzero" opacity="0.1"></path>
            <path d="M952.04,355.42 C952.04,355.42 941.98,367.68 946.04,372.42 C950.1,377.16 952.04,355.42 952.04,355.42 Z" id="Path" fill="#000000" fill-rule="nonzero" opacity="0.1"></path>
            <path d="M1131.89,315.17 C1131.89,315.17 1122.46,316.11 1122.14,324.29 L1131.89,315.17 Z" id="Path" fill="#000000" fill-rule="nonzero" opacity="0.1"></path>
            <path d="M1044.48,444.08 C1045.48,443.14 1067.12,411.08 1072.15,413.9 L1044.48,444.08 Z" id="Path" fill="#000000" fill-rule="nonzero" opacity="0.1"></path>
            <path d="M1085.05001,235.62 C1085.0552,241.782276 1083.53317,247.849794 1080.62,253.28 L1080.34,253.28 C1077.97,252.78 1076.74,250.02 1074.93,248.28 C1072.64553,246.108861 1069.23334,245.630591 1066.44,247.09 C1063.62864,248.7683 1062.0125,251.895934 1062.27,255.16 C1061.07,250.16 1061.45,244.77 1060.27,239.73 C1059.09,234.69 1055.58,229.58 1050.76,229.49 C1048.68,229.49 1046.26,230.26 1044.76,228.7 C1043.85,227.76 1043.67,226.28 1042.99,225.14 C1039.54,219.57 1029.06,222.39 1024.78,225.25 C1020.5,228.11 1015.53,232.67 1010.21,235.12 C1010.65757,214.672439 1027.43914,198.372257 1047.89107,198.519845 C1068.34299,198.667434 1084.88758,215.208109 1085.04,235.66 L1085.05001,235.62 Z" id="Path" fill="#000000" fill-rule="nonzero" opacity="0.1"></path>
            <path d="M1043,224.16 C1043.68,225.3 1043.86,226.78 1044.77,227.72 C1046.27,229.27 1048.69,228.47 1050.77,228.51 C1055.59,228.59 1059.11,233.7 1060.28,238.74 C1061.45,243.78 1061.07,249.14 1062.28,254.17 C1062.02643,250.909406 1063.64205,247.786653 1066.45,246.11 C1069.23972,244.649087 1072.65013,245.12767 1074.93,247.3 C1076.74,249.02 1077.93,251.78 1080.35,252.3 C1082.77,252.82 1085.01,250.52 1085.87,248.02 C1086.73,245.52 1086.66,242.78 1087.22,240.19 C1088.29,235.28 1091.49,231.26 1093.22,226.6 C1095.32883,220.926318 1095.27187,214.674313 1093.06,209.04 C1091.88,206.04 1090.13,203.43 1088.93,200.48 C1087.13,196 1086.65,190.95 1084.45,186.68 C1080.75,179.53 1072.03,175.96 1064.87,178.68 C1061.45,179.97 1058.48,182.46 1055.01,183.57 C1050.37,185.06 1045.4,183.94 1040.59,183.27 C1035.78,182.6 1030.46,182.54 1026.59,185.7 C1022.14,189.34 1020.92,196.18 1016.74,200.18 C1014.98,201.86 1012.8,202.93 1010.95,204.48 C1009.1,206.03 1007.5,208.34 1007.71,210.86 C1007.99,214.12 1011.18,217.08 1010,220.09 C1009.576,220.965772 1008.98098,221.747804 1008.25,222.39 C1004.7516,226.064299 1002.14748,230.495747 1000.64,235.34 C1009.06,237.97 1018.16,228.69 1024.75,224.34 C1029.08,221.41 1039.56,218.58 1043,224.16 Z" id="Path" fill="#4C3E42" fill-rule="nonzero"></path>
            <path d="M1124.5,462.76 L1120.59,465.99 C1117.14,460.24 1102.97,448.76 1102.97,448.76 L1103.58,448.17 C1104.89,447.84 1105.64,447.67 1105.64,447.67 L1124.5,462.76 Z" id="Path" fill="#000000" fill-rule="nonzero" opacity="0.1"></path>
            <path d="M1128.28,456.97 C1128.28,456.97 1126.87,460.47 1125.42,463.5 C1123.97,466.53 1122.42,469.27 1122.3,467.04 C1122.14,462.63 1103.91,447.85 1103.91,447.85 L1106.38,445.45 L1109.25,442.66 L1128.28,456.97 Z" id="Path" fill="#E7EFFD" fill-rule="nonzero"></path>
            <path d="M1128.91,433.7 L1130.97,468.78 C1126.09,461.19 1112.68,441.72 1104.06,442.35 L1124.97,418.35 C1125.84355,417.382827 1126.64567,416.35345 1127.37,415.27 C1128.16,425.25 1128.91,433.7 1128.91,433.7 Z" id="Path" fill="#000000" fill-rule="nonzero" opacity="0.1"></path>
            <path d="M1128.28,456.97 C1128.28,456.97 1126.87,460.47 1125.42,463.5 C1119.94,455.98 1112.42,447.11 1106.42,445.45 L1109.29,442.66 L1128.28,456.97 Z" id="Path" fill="#000000" fill-rule="nonzero" opacity="0.1"></path>
            <path d="M1144,329.76 L1149.66,334.16 C1149.66,334.16 1159.09,334.32 1160.03,342.16 C1160.97,350 1169.62,353.64 1169.62,353.64 C1169.62,353.64 1176.07,360.08 1176.07,363.07 C1176.07,366.06 1180.94,371.4 1180.94,371.87 C1180.94,372.34 1185.66,381.93 1185.03,383.66 C1184.4,385.39 1190.03,392.94 1188.33,395.77 C1186.90984,398.308396 1185.65069,400.933575 1184.56,403.63 C1184.56,403.63 1177.17,417.78 1173.39,420.45 C1169.61,423.12 1152.33,445.6 1152.33,445.6 C1152.33,445.6 1133.78,466.98 1133.78,473.6 C1133.78,473.6 1115.7,443.41 1105.01,444.2 L1125.92,420.15 C1125.92,420.15 1129.53,416.22 1129.69,413.86 C1129.85,411.5 1139.75,400.65 1144.47,400.18 C1144.47,400.18 1145.25,393.73 1143.21,393.58 C1141.17,393.43 1139.44,388.39 1139.44,388.39 C1139.44,388.39 1125.6,372.04 1125.44,361.66 C1125.28,351.28 1144,329.76 1144,329.76 Z" id="Path" fill="#65617D" fill-rule="nonzero"></path>
            <path d="M1152.33,344.76 C1152.33,344.76 1139.12,354.5 1141.95,357.65 C1144.78,360.8 1152.33,344.76 1152.33,344.76 Z" id="Path" fill="#000000" fill-rule="nonzero" opacity="0.1"></path>
            <path d="M1152.96,384.97 C1152.96,384.97 1177.48,377.11 1179.96,384.97 L1152.96,384.97 Z" id="Path" fill="#000000" fill-rule="nonzero" opacity="0.1"></path>
            <path d="M979.95,342.84 C979.95,342.84 979.95,378.68 976.88,382.22 C973.81,385.76 979.95,342.84 979.95,342.84 Z" id="Path" fill="#000000" fill-rule="nonzero" opacity="0.1"></path>
            <path d="M1121.67,354.39 L1126.23,367.2 C1126.23,367.2 1128.04,354.63 1121.67,354.39 Z" id="Path" fill="#000000" fill-rule="nonzero" opacity="0.1"></path>
            <g id="Group" opacity="0.1" transform="translate(1000.000000, 207.000000)" fill="#000000" fill-rule="nonzero">
                <path d="M10.56,9.98 C11.71,7.03 8.7,4.14 8.3,0.98 C7.90493876,1.87194375 7.73331565,2.84676301 7.8,3.82 C8,6.21 9.8,8.43 10.23,10.64 C10.3601007,10.4306378 10.4705706,10.2096979 10.56,9.98 Z" id="Path"></path>
                <path d="M62.69,43.84 C61.56,38.84 61.89,33.63 60.75,28.68 C59.61,23.73 56.06,18.52 51.24,18.44 C49.16,18.44 46.74,19.2 45.24,17.65 C44.33,16.71 44.15,15.23 43.47,14.09 C40.03,8.52 29.55,11.34 25.26,14.2 C18.83,18.47 10,27.41 1.75,25.39 C1.36,26.34 0.99,27.3 0.68,28.29 C9.1,30.92 18.2,21.64 24.79,17.29 C29.08,14.44 39.55,11.61 43,17.19 C43.68,18.33 43.86,19.81 44.77,20.75 C46.27,22.3 48.69,21.5 50.77,21.54 C55.59,21.62 59.11,26.73 60.28,31.77 C61.45,36.81 61.07,42.17 62.28,47.2 C62.1911123,46.0638626 62.3305168,44.9214255 62.69,43.84 L62.69,43.84 Z" id="Path"></path>
                <path d="M86.33,37.94 C85.47,40.44 83.23,42.73 80.81,42.22 C78.39,41.71 77.21,38.96 75.4,37.22 C73.1118435,35.0550817 69.7018158,34.5811321 66.91,36.04 C64.2403694,37.6304027 62.6438094,40.544029 62.74,43.65 C63.3711134,41.7295402 64.6885659,40.1094297 66.44,39.1 C69.2297202,37.6390865 72.6401334,38.1176705 74.92,40.29 C76.73,42.01 77.92,44.77 80.34,45.29 C82.76,45.81 85,43.51 85.86,41.01 C86.3038641,39.537534 86.5921068,38.0225844 86.72,36.49 C86.6159199,36.9799349 86.4857343,37.4639583 86.33,37.94 Z" id="Path"></path>
                <path d="M93.72,16.53 C91.95,21.19 88.72,25.21 87.72,30.11 C87.5,31.11 87.38,32.11 87.26,33.11 C88.33,28.23 91.52,24.22 93.26,19.57 C94.0484389,17.4759366 94.5366109,15.280846 94.71,13.05 C94.4727873,14.2344132 94.1417434,15.3980826 93.72,16.53 L93.72,16.53 Z" id="Path"></path>
            </g>
            <circle id="Oval" fill="#E6E8EC" fill-rule="nonzero" cx="866.53" cy="336.97" r="1"></circle>
            <path d="M552.26,556.39 C552.26,556.39 563.26,548.5 574.69,553.39 C574.69,553.39 571.49,560.17 557.29,560.08 L552.26,556.39 Z" id="Path" fill="#993333" fill-rule="nonzero"></path>
            <path d="M550.89,556.85 C550.89,556.85 547.95,570.08 556.89,578.66 C556.89,578.66 561.89,573.06 556.22,560.03 L550.89,556.85 Z" id="Path" fill="#993333" fill-rule="nonzero"></path>
            <path d="M536.31,544.81 C536.31,544.81 536.72,533.64 562.01,536.37 C562.01,536.37 562.41,543.56 553.71,547.3 C545.01,551.04 540.86,548.33 536.31,544.81 Z" id="Path" fill="#993333" fill-rule="nonzero"></path>
            <path d="M534.76,544.76 C534.76,544.76 524.26,548.58 534.64,571.81 C534.64,571.81 541.64,569.97 542.48,560.54 C543.32,551.11 539.5,548.04 534.76,544.76 Z" id="Path" fill="#993333" fill-rule="nonzero"></path>
            <path d="M519.92,529.54 C519.92,529.54 517.78,511.27 543.56,512.16 C543.56,512.16 546.02,528.68 524.63,533.77 L519.92,529.54 Z" id="Path" fill="#993333" fill-rule="nonzero"></path>
            <path d="M502.14,509.5 C502.14,509.5 504.87,488.59 530.8,493.8 C530.8,493.8 531.58,511.8 506.52,514.29 L502.14,509.5 Z" id="Path" fill="#993333" fill-rule="nonzero"></path>
            <path d="M488.91,488.58 C488.91,488.58 494.03,468.08 519.72,473.21 C519.72,473.21 514.36,491.63 490.72,492.21 L488.91,488.58 Z" id="Path" fill="#993333" fill-rule="nonzero"></path>
            <path d="M476.32,468.14 C476.32,468.14 481.32,446.92 506.09,452.29 C506.09,452.29 498.65,472.55 478.09,471.66 L476.32,468.14 Z" id="Path" fill="#993333" fill-rule="nonzero"></path>
            <path d="M467.95,448.59 C467.95,448.59 471.4,422.76 494.56,427.54 C494.56,427.54 488.8,451.16 469.8,452.26 L467.95,448.59 Z" id="Path" fill="#993333" fill-rule="nonzero"></path>
            <path d="M459.91,424.88 C459.91,424.88 464.24,398.79 487.69,405.43 C487.69,405.43 479.54,430.24 461.69,428.43 L459.91,424.88 Z" id="Path" fill="#993333" fill-rule="nonzero"></path>
            <path d="M454.64,402.76 C454.64,402.76 462.1,376.55 480.06,376.559997 C480.06,376.559997 472.46,404.23 456.34,407.89 L454.64,402.76 Z" id="Path" fill="#993333" fill-rule="nonzero"></path>
            <path d="M451.01,381.07 C451.01,381.07 459.01,349.56 473.69,351.4 C473.69,351.4 468.24,375.46 451.69,385.9 L451.01,381.07 Z" id="Path" fill="#993333" fill-rule="nonzero"></path>
            <path d="M448.42,355.12 C448.42,355.12 456.04,328.82 470.42,327.24 C470.42,327.24 465.53,353.01 449.01,361.85 L448.42,355.12 Z" id="Path" fill="#993333" fill-rule="nonzero"></path>
            <path d="M445.75,330.97 C445.75,330.97 455.5,304.57 465,303.62 C465,303.62 461.31,329.39 446.86,335.2 L445.75,330.97 Z" id="Path" fill="#993333" fill-rule="nonzero"></path>
            <path d="M443.69,308.47 C443.69,308.47 449.22,279.98 458.63,277.28 C458.63,277.28 458.22,300.42 444.73,310.54 L443.69,308.47 Z" id="Path" fill="#993333" fill-rule="nonzero"></path>
            <path d="M438.98,279.1 C438.98,279.1 445.07,256.33 452.64,252.61 C452.64,252.61 452.13,279.19 440.98,284.53 L438.98,279.1 Z" id="Path" fill="#993333" fill-rule="nonzero"></path>
            <path d="M435.27,259.83 L432.35,220.2 C432.35,220.2 447.86,249.6 436.56,266.76 L435.27,259.83 Z" id="Path" fill="#993333" fill-rule="nonzero"></path>
            <path d="M422.64,220.82 C422.64,220.82 411.18,192.25 408.64,190.73 C408.64,190.73 429.64,208.73 428.64,233 L422.64,220.82 Z" id="Path" fill="#993333" fill-rule="nonzero"></path>
            <path d="M519.21,529.43 C519.21,529.43 500.89,527.75 502.42,553.49 C502.42,553.49 519,555.49 523.56,534.03 L519.21,529.43 Z" id="Path" fill="#993333" fill-rule="nonzero"></path>
            <path d="M501.25,508.84 C501.25,508.84 480.18,509.58 482.91,535.84 C482.91,535.84 500.71,538.32 505.6,513.62 L501.25,508.84 Z" id="Path" fill="#993333" fill-rule="nonzero"></path>
            <path d="M488.77,490.3 C488.77,490.3 469.3,482.06 457.95,505.67 C457.95,505.67 475.9,512.47 490.6,493.97 L488.77,490.3 Z" id="Path" fill="#993333" fill-rule="nonzero"></path>
            <path d="M475.9,468.35 C475.9,468.35 455.95,459.56 445.32,482.61 C445.32,482.61 465.99,488.85 477.65,471.87 L475.9,468.35 Z" id="Path" fill="#993333" fill-rule="nonzero"></path>
            <path d="M468.22,449.14 C468.22,449.14 448.69,431.86 434.35,450.64 C434.35,450.64 454.17,464.71 469.24,453.11 L468.22,449.14 Z" id="Path" fill="#993333" fill-rule="nonzero"></path>
            <path d="M460.96,424.23 C460.96,424.23 441.29,406.54 427.11,426.37 C427.11,426.37 448.97,440.66 461.78,428.06 L460.96,424.23 Z" id="Path" fill="#993333" fill-rule="nonzero"></path>
            <path d="M456.56,401.93 C456.56,401.93 441.07,379.51 424.08,385.29 C424.08,385.29 440.16,409.05 456.6,407.29 L456.56,401.93 Z" id="Path" fill="#993333" fill-rule="nonzero"></path>
            <path d="M451.43,380.91 C451.43,380.91 435.6,352.51 421.88,358.07 C421.88,358.07 433.34,379.92 452,385.76 L451.43,380.91 Z" id="Path" fill="#993333" fill-rule="nonzero"></path>
            <path d="M449.37,353.6 C449.37,353.6 433.37,331.39 419.31,334.72 C419.31,334.72 432.55,357.35 451.09,360.14 L449.37,353.6 Z" id="Path" fill="#993333" fill-rule="nonzero"></path>
            <path d="M447.33,330.4 C447.33,330.4 434.63,305.28 425.08,305.4 C425.08,305.4 431.69,330.58 446.7,334.71 L447.33,330.4 Z" id="Path" fill="#993333" fill-rule="nonzero"></path>
            <path d="M444.14,307.89 C444.14,307.89 430.14,282.49 420.32,282.82 C420.32,282.82 427.84,304.71 443.79,310.19 L444.14,307.89 Z" id="Path" fill="#993333" fill-rule="nonzero"></path>
            <path d="M441.13,280.6 C441.13,280.6 430.56,259.54 422.4,257.43 C422.4,257.43 428.27,283.36 440.28,286.33 L441.13,280.6 Z" id="Path" fill="#993333" fill-rule="nonzero"></path>
            <path d="M434.08,259.12 L411.02,226.76 C411.02,226.76 417.86,259.28 437.5,265.31 L434.08,259.12 Z" id="Path" fill="#993333" fill-rule="nonzero"></path>
            <path d="M417.75,223.68 C417.75,223.68 391.75,207.17 390.75,204.39 C390.75,204.39 404.61,228.39 428.65,231.78 L417.75,223.68 Z" id="Path" fill="#993333" fill-rule="nonzero"></path>
            <path d="M415.93,215.88 C415.93,215.88 385.79,189.05 378.37,189.36 C378.37,189.36 402.37,189.54 416.57,214.36 L415.93,215.88 Z" id="Path" fill="#993333" fill-rule="nonzero"></path>
            <path d="M441.01,284.76 L439.95,284.94 C432.85,242.39 423.95,217.42 414.8,214.64 L415.11,213.64 C424.78,216.56 433.73,241.17 441.01,284.76 Z" id="Path" fill="#444053" fill-rule="nonzero"></path>
            <path d="M452.95,386.7 L451.36,386.9 C450.87,382.9 450.46,378.84 450.12,374.78 C447.24,339.44 443.63,307.03 439.59,282.78 L440.47,281.6 C444.47,305.89 448.84,339.26 451.73,374.6 C452.05,378.69 452.47,382.76 452.95,386.7 Z" id="Path" fill="#444053" fill-rule="nonzero"></path>
            <path d="M582.9,575.61 C582.61,575.49 553.96,564 523.57,535.11 C505.777132,518.205513 490.774534,498.589067 479.12,476.99 C464.55,449.99 455.01,416.47 450.99,383.71 L452.69,384.43 C461.69,457.95 497.23,507.09 524.98,533.49 C555.07,562.12 583.4,573.49 583.68,573.62 L582.9,575.61 Z" id="Path" fill="#444053" fill-rule="nonzero"></path>
            <g id="Group" opacity="0.7" transform="translate(521.000000, 140.000000)" fill-rule="nonzero">
                <path d="M81.81,402.99 C81.81,402.99 94.67,398.74 104.11,406.78 C104.11,406.78 99.04,412.31 85.51,407.99 L81.81,402.99 Z" id="Path" fill="#993333"></path>
                <path d="M80.36,403.01 C80.36,403.01 73.62,414.77 79.62,425.63 C79.62,425.63 86.05,421.76 84.52,407.63 L80.36,403.01 Z" id="Path" fill="#993333"></path>
                <path d="M70.02,387.19 C70.02,387.19 73.74,376.64 97.02,386.78 C97.02,386.78 95.26,393.78 85.84,394.78 C76.42,395.78 73.32,391.9 70.02,387.19 Z" id="Path" fill="#993333"></path>
                <path d="M68.56,386.76 C68.56,386.76 57.39,387.29 60.4,412.55 C60.4,412.55 67.58,412.87 71.23,404.13 C74.88,395.39 72.11,391.22 68.56,386.76 Z" id="Path" fill="#993333"></path>
                <path d="M58.91,367.76 C58.91,367.76 62.31,349.68 86.65,358.2 C86.65,358.2 84.08,374.7 62.15,373.2 L58.91,367.76 Z" id="Path" fill="#993333"></path>
                <path d="M47.9,343.31 C47.9,343.31 56.73,324.16 79.9,336.85 C79.9,336.85 75.31,354.22 50.63,349.18 L47.9,343.31 Z" id="Path" fill="#993333"></path>
                <path d="M41.49,319.4 C41.49,319.4 52.49,301.35 75.49,313.89 C75.49,313.89 64.89,329.89 42.15,323.45 L41.49,319.4 Z" id="Path" fill="#993333"></path>
                <path d="M35.56,296.14 C35.56,296.14 46.62,277.36 68.71,289.86 C68.71,289.86 55.58,306.99 36.19,300.02 L35.56,296.14 Z" id="Path" fill="#993333"></path>
                <path d="M33.39,274.98 C33.39,274.98 44.39,251.33 65.03,262.8 C65.03,262.8 52.5,283.63 34.03,279.03 L33.39,274.98 Z" id="Path" fill="#993333"></path>
                <path d="M32.76,249.96 C32.76,249.96 44.66,226.34 65.07,239.66 C65.07,239.66 49.9,260.92 33.39,253.83 L32.76,249.96 Z" id="Path" fill="#993333"></path>
                <path d="M34.32,227.25 C34.32,227.25 49.24,204.45 66.38,209.8 C66.38,209.8 50.89,233.96 34.38,232.66 L34.32,227.25 Z" id="Path" fill="#993333"></path>
                <path d="M37.3,205.48 C37.3,205.48 54.3,177.77 67.78,183.91 C67.78,183.91 55.41,205.25 36.53,210.3 L37.3,205.48 Z" id="Path" fill="#993333"></path>
                <path d="M42.56,179.93 C42.56,179.93 57.66,157.1 71.84,159.86 C71.84,159.86 59.51,183.01 41.1,186.54 L42.56,179.93 Z" id="Path" fill="#993333"></path>
                <path d="M47.18,156.09 C47.18,156.09 64.35,133.78 73.7,135.7 C73.7,135.7 62.51,159.2 46.99,160.46 L47.18,156.09 Z" id="Path" fill="#993333"></path>
                <path d="M51.91,133.99 C51.91,133.99 65.66,108.44 75.46,108.66 C75.46,108.66 68.18,130.66 52.28,136.28 L51.91,133.99 Z" id="Path" fill="#993333"></path>
                <path d="M56.16,104.55 C56.16,104.55 68.74,84.63 77.08,83.32 C77.08,83.32 68.68,108.55 56.45,110.32 L56.16,104.55 Z" id="Path" fill="#993333"></path>
                <path d="M58.34,85.04 L67.34,46.35 C67.34,46.35 73.41,79.02 57.54,92.08 L58.34,85.04 Z" id="Path" fill="#993333"></path>
                <path d="M57.89,44.05 C57.89,44.05 55.45,13.36 53.46,11.15 C53.46,11.15 68.19,34.61 59.96,57.45 L57.89,44.05 Z" id="Path" fill="#993333"></path>
                <path d="M58.27,367.42 C58.27,367.42 41.27,360.35 35.09,385.42 C35.09,385.42 50.3,392.31 61.09,373.13 L58.27,367.42 Z" id="Path" fill="#993333"></path>
                <path d="M47.25,342.41 C47.25,342.41 26.92,336.85 21.7,362.77 C21.7,362.77 37.95,370.44 49.98,348.31 L47.25,342.41 Z" id="Path" fill="#993333"></path>
                <path d="M40.85,321 C40.85,321 24.72,307.34 6.85,326.51 C6.85,326.51 21.96,338.34 41.5,325.05 L40.85,321 Z" id="Path" fill="#993333"></path>
                <path d="M35.09,296.22 C35.09,296.22 18.67,281.89 1.66,300.76 C1.66,300.76 19.53,312.86 35.72,300.11 L35.09,296.22 Z" id="Path" fill="#993333"></path>
                <path d="M33.48,275.59 C33.48,275.59 19.97,253.28 0.7,266.94 C0.7,266.94 15.43,286.28 33.27,279.68 L33.48,275.59 Z" id="Path" fill="#993333"></path>
                <path d="M33.96,249.64 C33.96,249.64 20.44,226.91 0.96,241.64 C0.96,241.64 17.58,261.79 33.56,253.57 L33.96,249.64 Z" id="Path" fill="#993333"></path>
                <path d="M36.38,227.04 C36.38,227.04 28.27,201.04 10.32,201.49 C10.32,201.49 18.61,228.97 34.82,232.22 L36.38,227.04 Z" id="Path" fill="#993333"></path>
                <path d="M37.75,205.45 C37.75,205.45 31.08,173.63 16.33,174.86 C16.33,174.86 20.77,199.13 36.85,210.25 L37.75,205.45 Z" id="Path" fill="#993333"></path>
                <path d="M43.91,178.76 C43.91,178.76 35.24,152.76 20.82,151.76 C20.82,151.76 26.74,177.32 43.6,185.49 L43.91,178.76 Z" id="Path" fill="#993333"></path>
                <path d="M48.86,156.01 C48.86,156.01 44.21,128.25 35.05,125.54 C35.05,125.54 33.87,151.54 46.98,159.96 L48.86,156.01 Z" id="Path" fill="#993333"></path>
                <path d="M52.56,133.57 C52.56,133.57 46.73,105.15 37.28,102.57 C37.28,102.57 37.94,125.7 51.55,135.68 L52.56,133.57 Z" id="Path" fill="#993333"></path>
                <path d="M57.76,106.63 C57.76,106.63 53.93,83.38 46.76,78.92 C46.76,78.92 44.65,105.43 55.23,111.84 L57.76,106.63 Z" id="Path" fill="#993333"></path>
                <path d="M57.42,84.02 L45.03,46.27 C45.03,46.27 41.88,79.36 58.84,90.96 L57.42,84.02 Z" id="Path" fill="#993333"></path>
                <path d="M52.37,45.33 C52.37,45.33 32.46,21.83 32.37,18.87 C32.37,18.87 38.46,45.87 60.37,56.29 L52.37,45.33 Z" id="Path" fill="#993333"></path>
                <path d="M52.95,37.34 C52.95,37.34 32.16,2.75 24.95,0.84 C24.95,0.84 47.83,8.16 53.95,36.08 L52.95,37.34 Z" id="Path" fill="#993333"></path>
                <path d="M56.4,110.56 L55.34,110.41 C61.22,67.68 60.12,41.18 52.24,35.81 L52.85,34.93 C61.2,40.62 62.43,66.76 56.4,110.56 Z" id="Path" fill="#444053"></path>
                <path d="M37.48,211.44 L35.9,211.15 C36.62,207.2 37.43,203.15 38.33,199.21 C46.09,164.62 52.33,132.6 55.64,108.21 L56.83,107.35 C53.47,131.74 47.67,164.89 39.89,199.52 C39.01,203.52 38.19,207.51 37.48,211.44 Z" id="Path" fill="#444053"></path>
                <path d="M105.34,430.45 C105.1,430.26 81.16,410.75 60.75,374.14 C48.7713992,352.709892 40.2690236,329.514844 35.56,305.42 C29.68,275.3 30.56,240.42 36.45,208 L37.86,209.19 C24.61,282.07 43.86,339.55 62.53,373.01 C82.74,409.29 106.4,428.59 106.64,428.78 L105.34,430.45 Z" id="Path" fill="#444053"></path>
            </g>
            <path d="M387.36,478.33 C385.009056,479.298736 382.566816,480.029063 380.07,480.51 C375.706967,481.326551 371.278759,481.744938 366.84,481.76 C366.97,482.93 367.07,484.02 367.17,485.01 C367.41,487.73 367.55,489.6 367.55,489.6 L362.86,489.28 L324.18,486.64 L301.56,483.29 C302.651797,484.755397 303.837627,486.14833 305.11,487.46 C306.42776,488.854862 307.952256,490.038707 309.63,490.97 C309.63,490.97 330.04,507.5 333.57,507.65 C334.07,507.65 334.23,508.15 334.15,508.94 C342.74,508.94 369.45,510.19 362.04,525.06 C360.814057,527.710674 358.652469,529.815285 355.97,530.97 C347.4,534.6 334.47,528.07 327.81,524.06 C327.16,525.33 326.54,526.51 325.99,527.52 C324.86,529.65 324.07,531.06 324.07,531.06 L323.4,530.58 L289.08,506.14 L281.56,499.76 C279.351056,499.659137 277.163719,499.279461 275.05,498.63 L275.05,498.63 L274.05,498.31 C274.006543,498.397082 273.969771,498.487342 273.94,498.58 C273.666175,499.360412 273.462044,500.163552 273.33,500.98 C273.33,501.1 273.33,501.22 273.33,501.34 C273.189647,502.271384 273.096196,503.209234 273.05,504.15 C273.05,504.79 273,505.47 273,506.15 C272.94,519.77 278.4,541.66 278.4,541.66 C278.4,541.66 292.55,577.75 287.53,586.08 L287.53,586.08 C287.271283,586.502524 286.931404,586.869593 286.53,587.16 C284.76,588.44 283.7,590.72 283.15,593.43 C281.28,602.27 284.56,615.76 284.56,615.76 C284.56,615.76 284.26,616.26 283.75,617.04 C282.646538,618.804034 281.402499,620.476129 280.03,622.04 C279.82,622.28 279.6,622.53 279.37,622.76 C278.750766,623.410696 278.082103,624.012492 277.37,624.56 C277.5,624.95 277.64,625.35 277.78,625.78 C277.92,626.21 278.1,626.88 278.24,627.48 C279.353601,632.394682 278.916908,637.533689 276.99,642.19 C275.679357,645.584247 274.831741,649.139525 274.47,652.76 L274.47,652.76 C273.81972,659.38902 273.991018,666.072991 274.98,672.66 C274.83,672.58 274.7,672.5 274.55,672.43 C263.49,666.65 252.586667,660.613333 241.84,654.32 C238.69,652.5 235.56,650.64 232.45,648.77 C228.623333,646.463333 224.813333,644.13 221.02,641.77 C216.02,638.65 211.02,635.45 206.02,632.18 L203.68,630.62 L202.78,630.01 C201.51,629.16 200.26,628.31 199,627.45 C193.829958,620.768588 189.106366,613.753353 184.86,606.45 C184.15,605.18 183.51,603.97 182.98,602.86 L182.98,602.8 L182.64,602.07 L181.23,601.57 L181.23,601.57 C178.58,600.64 176.9,599.99 176.9,599.99 L176.9,599.99 C178.123057,595.528217 178.708859,590.915865 178.64,586.29 C178.56,577.29 176.07,565.29 165.81,555.67 C150.65,541.34 148.56,527.19 148.34,521.76 C148.34,521.38 148.34,521.04 148.34,520.76 C148.334977,520.30258 148.355007,519.845229 148.4,519.39 L149.56,518.28 C146.62,517.69 143.86,517.42 143.86,517.42 C143.86,517.42 153.92,481.02 170.86,468.87 C179.26,462.87 186.25,452.87 191.19,444.29 C200.20167,428.783758 210.32132,413.948512 221.47,399.9 L224.52,396.05 L225.41,394.92 L225.6,394.69 L225.84,394.37 C225.426667,393.743333 225.006667,393.123333 224.58,392.51 L224.3,392.1 C222.97,390.1 221.83,388.1 222.01,385.71 C222.01,385.71 222.01,385.66 222.01,385.64 C222.01,385.47 222.01,385.31 222.01,385.13 C222.052436,384.731529 222.125994,384.336991 222.23,383.95 C222.264151,384.0137 222.304335,384.073976 222.35,384.13 C223.78,379.97 229.29,378.13 233.35,375.83 C242.92,370.45 247,358.68 249.05,347.73 C250.64,339.21 251.96,329.66 258.56,324.19 C262.82,320.67 268.56,319.51 272.87,316.02 C275.36364,313.816408 277.425408,311.167986 278.95,308.21 C279.95,306.51 280.81,304.75 281.74,303.05 C286,295.35 291.6,288.19 299.01,283.58 C306.42,278.97 315.82,277.18 323.94,280.28 C327.07,281.47 329.94,283.28 332.94,284.61 C334.792392,285.365437 336.706042,285.960944 338.66,286.39 C344.77,287.82 351.2,288.19 356.94,290.74 C366.27,294.88 372.34,304.04 377.88,312.74 C380.75,317.24 385.26,323.82 387.82,330.44 C387.82,330.2 387.82,329.98 387.82,329.75 C389.054385,332.665165 389.732712,335.785466 389.82,338.95 C389.869987,340.297082 389.725159,341.644322 389.39,342.95 C388.47,346.35 386.12,348.5 383.17,350.08 L382.7,350.31 C382.069216,350.634192 381.421635,350.924602 380.76,351.18 C380.66,351.73 380.55,352.29 380.43,352.83 C380.38,353.06 380.32,353.3 380.26,353.53 C380.13,354.09 379.98,354.64 379.82,355.19 C377.682358,362.337307 373.513223,368.709136 367.82,373.53 C363.877213,376.903033 359.320579,379.483541 354.4,381.13 C354.05,381.25 353.68,381.34 353.33,381.45 C353.032553,382.286945 352.607536,383.072889 352.07,383.78 C351.680484,384.278411 351.222645,384.719418 350.71,385.09 C350.390639,385.306478 350.056485,385.500287 349.71,385.67 C349.625144,385.723292 349.534578,385.766898 349.44,385.8 C345.84,387.42 340.91,386.15 337.44,383.73 C337.26,383.61 337.09,383.47 336.92,383.34 C336.92,383.91 336.83,384.51 336.73,385.13 C336.63,385.75 336.56,386.13 336.45,386.65 C336.34,387.17 336.3,387.42 336.23,387.79 C336.16,388.16 336.11,388.41 336.05,388.7 L335.93,389.21 C333.949001,398.862005 330.169952,408.055203 324.79,416.31 C324.009804,417.492178 323.165196,418.630563 322.26,419.72 L319.78,423.5 L319.78,424.01 C320.25,432.71 317.39,440.82 313.35,447.8 C311.997186,450.114115 310.51136,452.347862 308.9,454.49 L309.46,454.82 C315.06,458.01 326.1,463.68 333.08,463.2 C333.08,463.2 359.48,466.61 362.54,464.9 C362.96,464.66 363.37,464.99 363.75,465.7 C368.02,463.1 377.84,457.59 385.59,456.86 C391.01,456.34 395.42,458.15 396.24,464.86 C397.06,471.57 393.02,475.9 387.36,478.33 Z" id="Path" fill="url(#linearGradient-2)" fill-rule="nonzero"></path>
            <path d="M242.85,615.84 C246.275207,621.683266 246.806765,628.781781 244.29,635.07 C241.86,641.16 241.59,648.75 241.84,654.32 C238.69,652.5 235.56,650.64 232.45,648.77 C228.623333,646.463333 224.813333,644.13 221.02,641.77 C216.02,638.65 211.02,635.45 206.02,632.18 L203.68,630.62 L202.78,630.01 C202.701351,629.86449 202.603842,629.729995 202.49,629.61 C201.15,628.19 193.34,616.99 188.7,608.49 C187.86,606.93 187.13,605.49 186.55,604.17 L186.55,604.1 C185.55,601.88 185.08,600.1 185.38,599.29 C186.114621,596.714272 187.865497,594.54824 190.23,593.29 C195.99,590.29 205.23,593.06 214.37,597.47 C222.233923,601.444614 229.770806,606.035626 236.91,611.2 L237.72,611.79 L237.8,611.85 C240.8,613.98 242.54,615.39 242.54,615.39 C242.54,615.39 242.67,615.55 242.85,615.84 Z" id="Path" fill="#FBBEBE" fill-rule="nonzero"></path>
            <path d="M241.33,614.51 C244.761663,620.358524 245.29334,627.46601 242.77,633.76 C240.34,639.85 240.07,647.44 240.32,653.02 C237.173333,651.186667 234.043333,649.333333 230.93,647.46 C227.096667,645.153333 223.286667,642.82 219.5,640.46 C214.5,637.33 209.5,634.13 204.55,630.86 L202.21,629.3 L201.31,628.69 C201.228877,628.546061 201.13158,628.411858 201.02,628.29 C199.68,626.88 191.87,615.68 187.23,607.17 C186.39,605.61 185.66,604.17 185.08,602.85 L185.08,602.79 C184.08,600.56 183.61,598.79 183.91,597.97 C184.647747,595.395896 186.39774,593.230956 188.76,591.97 C194.52,588.97 203.76,591.74 212.9,596.15 C220.763923,600.124614 228.300806,604.715626 235.44,609.88 L236.25,610.47 L236.33,610.53 C239.33,612.66 241.07,614.07 241.07,614.07 C241.07,614.07 241.15,614.22 241.33,614.51 Z" id="Path" fill="#000000" fill-rule="nonzero" opacity="0.05"></path>
            <path d="M278.15,638.76 C277.859121,640.472061 277.386447,642.14821 276.74,643.76 C275.632617,646.660476 274.870702,649.681284 274.47,652.76 L274.47,652.76 C273.682506,659.29471 273.709378,665.901912 274.55,672.43 C263.49,666.65 252.586667,660.613333 241.84,654.32 C238.69,652.5 235.56,650.64 232.45,648.77 C231.75,643.45 230.75,638.77 229.62,637.62 C228.14,636.06 219.69,623.98 214.44,614.45 C213.76,613.25 213.17,612.09 212.62,610.99 L212.62,610.94 C212.41,610.5 212.21,610.08 212.02,609.66 C210.67,606.76 209.95,604.5 210.31,603.41 C211.011722,601.039852 212.455942,598.957652 214.43,597.47 C223.3,590.99 241.74,599.76 255.9,608.47 L256.25,608.68 C258.93,610.35 261.47,612 263.75,613.54 L265.08,614.44 C270.94,618.44 274.83,621.55 274.83,621.55 C275.79642,623.040712 276.572452,624.646527 277.14,626.33 C277.474008,627.279327 277.751165,628.247709 277.97,629.23 C278.661991,632.363226 278.723181,635.602878 278.15,638.76 L278.15,638.76 Z" id="Path" fill="#FBBEBE" fill-rule="nonzero"></path>
            <path d="M188.75,608.49 C196.02,611.03 206.75,614.4 212.59,614.49 C213.19477,614.508549 213.800053,614.478452 214.4,614.4 L214.4,614.4 C218.51,613.84 231.18,614.74 242.81,615.79 C247.47,616.2 251.96,616.63 255.67,617.01 L264.99,618.01 L264.99,614.41 C262.4,612.63 259.39,610.65 256.17,608.65 C241.96,599.87 223.29,590.9 214.35,597.43 C201.76,591.35 188.98,588.43 185.35,599.25 C184.93,600.66 186.46,604.24 188.75,608.49 Z" id="Path" fill="#000000" fill-rule="nonzero" opacity="0.1"></path>
            <path d="M153.82,524.68 C154.02,530.07 156.04,544.06 170.51,558.19 C188.97,576.19 181.1,602.07 181.1,602.07 C181.1,602.07 203.1,610.71 212.59,610.94 C213.19477,610.958549 213.800053,610.928452 214.4,610.85 C220.09,610.06 242.71,612.15 255.71,613.46 L265.03,614.46 L265.03,537.94 L163.09,513.18 L153.86,522.38 C153.797641,523.14503 153.784281,523.913265 153.82,524.68 Z" id="Path" fill="#5C5C8E" fill-rule="nonzero"></path>
            <g id="Group"></g>
            <g id="Group" opacity="0.1" transform="translate(153.000000, 513.000000)" fill="#000000" fill-rule="nonzero">
                <path d="M110.36,100.51 L112.03,100.68 L112.03,101.5 L102.71,100.5 C93.38,99.56 79.12,98.22 69.71,97.83 C76.22,97.25 97.77,99.24 110.36,100.51 Z" id="Path"></path>
                <path d="M0.86,9.43 L10.09,0.23 L16.25,1.72 L8.56,9.43 C8.51096843,10.1958827 8.51096843,10.9641173 8.56,11.73 C8.76,17.12 10.78,31.1 25.25,45.24 C43.71,63.24 35.84,89.11 35.84,89.11 C35.84,89.11 54.04,96.26 64.47,97.73 C63.4674786,97.7258057 62.4656298,97.7825772 61.47,97.9 C60.870053,97.9784524 60.2647703,98.0085493 59.66,97.99 C50.17,97.75 28.17,89.11 28.17,89.11 C28.17,89.11 36.04,63.24 17.58,45.24 C3.04,31.1 1.02,17.12 0.82,11.76 C0.782991561,10.9832846 0.796352888,10.2049874 0.86,9.43 Z" id="Path"></path>
            </g>
            <path d="M357.56,470.64 C357.56,470.64 388.39,449.26 390.64,468.5 C392.89,487.74 357.56,485.04 357.56,485.04 L357.56,470.64 Z" id="Path" fill="#FBBEBE" fill-rule="nonzero"></path>
            <path d="M304.4,456.46 C304.4,456.46 321.07,467.46 330.3,466.81 C330.3,466.81 355.5,470.19 358.43,468.5 C361.36,466.81 363.16,492.92 363.16,492.92 L321.75,489.99 L295.19,485.94 C295.19,485.94 281.91,477.84 281.91,470.86 C281.91,463.88 304.4,456.46 304.4,456.46 Z" id="Path" fill="#F7CDDD" fill-rule="nonzero"></path>
            <path d="M304.4,456.46 C304.4,456.46 321.07,467.46 330.3,466.81 C330.3,466.81 355.5,470.19 358.43,468.5 C361.36,466.81 363.16,492.92 363.16,492.92 L321.75,489.99 L295.19,485.94 C295.19,485.94 281.91,477.84 281.91,470.86 C281.91,463.88 304.4,456.46 304.4,456.46 Z" id="Path" fill="#993333" fill-rule="nonzero"></path>
            <path d="M328.84,512.1 C328.84,512.1 366.33,510.55 357.93,528.01 C349.53,545.47 321.13,524.27 321.13,524.27 L328.84,512.1 Z" id="Path" fill="#FBBEBE" fill-rule="nonzero"></path>
            <path d="M291.14,474.91 C291.14,474.91 321.52,452.18 317.25,424.5 C312.98,396.82 291.14,445.66 291.14,445.66 L291.14,474.91 Z" id="Path" fill="#5C5C8E" fill-rule="nonzero"></path>
            <path d="M299.559985,349.42 C299.565798,359.377005 303.437958,368.942674 310.36,376.1 C314.093386,379.954585 318.588904,382.98906 323.56,385.01 C325.162966,385.680426 326.814343,386.228656 328.5,386.65 C330.29066,387.112128 332.111922,387.446304 333.95,387.65 C335.27,387.78 336.6,387.85 337.95,387.85 C342.247175,387.841112 346.51146,387.100526 350.56,385.66 C369.036609,379.242019 379.736691,359.961602 375.407663,340.887141 C371.078635,321.81268 353.103993,309.040112 333.667067,311.226765 C314.230141,313.413418 299.542706,329.860469 299.559985,349.42 Z" id="Path" fill="#FBBEBE" fill-rule="nonzero"></path>
            <path d="M153.82,524.68 C157.26,525.31 161.51,526.47 161.51,528.25 C161.51,531.25 209.51,547.46 209.51,547.46 C209.51,547.46 207.71,551.65 212.51,558.86 C217.31,566.07 256.34,607.47 256.34,607.47 L256.21,608.69 L255.71,613.46 L253.33,636.27 C253.33,636.27 268.33,630.87 273.13,631.47 C274.68,631.66 276.37,630.67 277.92,629.23 C277.349487,626.504965 276.288955,623.906153 274.79,621.56 C274.79,621.56 270.9,618.5 265.03,614.45 L265.03,537.94 L163.09,513.18 L153.86,522.38 C153.797641,523.14503 153.784281,523.913265 153.82,524.68 Z" id="Path" fill="#000000" fill-rule="nonzero" opacity="0.1"></path>
            <path d="M149.5,520.45 C149.5,520.45 161.5,521.64 161.5,524.65 C161.5,527.66 209.5,543.86 209.5,543.86 C209.5,543.86 207.7,548.05 212.5,555.26 C217.3,562.47 256.33,603.87 256.33,603.87 L253.33,632.67 C253.33,632.67 268.33,627.27 273.13,627.87 C275.28,628.14 277.65,626.15 279.61,623.87 C281.23586,621.947667 282.685061,619.882639 283.94,617.7 C283.94,617.7 278.53,594.88 285.74,589.48 C292.95,584.08 277.94,544.48 277.94,544.48 C277.94,544.48 271.15,516.32 273.15,504.24 C273.277278,503.435283 273.47128,502.642549 273.73,501.87 C273.73,501.78 273.78,501.69 273.82,501.6 C278.1,490.06 324.14,393.25 324.14,393.25 C324.110416,390.504222 323.916737,387.762666 323.56,385.04 C323.47,384.28 323.35,383.49 323.2,382.7 C322.967651,381.260857 322.657193,379.835418 322.27,378.43 C322.01,377.51 321.73,376.63 321.4,375.79 C319.98,372.13 317.8,369.32 314.54,369.25 C314.54,369.25 310.94,365.25 302.54,364.19 C296.34,363.38 287.54,364.19 275.54,369.25 C247.34,381.25 240.74,381.85 240.74,381.85 L226.56,400.42 L223.64,404.24 C212.967644,418.160886 203.30625,432.828425 194.73,448.13 C190.01,456.61 183.33,466.5 175.32,472.44 C159.11,484.45 149.5,520.45 149.5,520.45 Z" id="Path" fill="#993333" fill-rule="nonzero"></path>
            <path d="M254.68,451.06 C254.68,451.06 214.62,460.96 199.09,485.94 L254.68,451.06 Z" id="Path" fill="#000000" fill-rule="nonzero" opacity="0.1"></path>
            <path d="M242.3,494.94 C242.3,494.94 234.73,545.8 236.83,549.63 C238.93,553.46 242.3,494.94 242.3,494.94 Z" id="Path" fill="#000000" fill-rule="nonzero" opacity="0.1"></path>
            <path d="M245.01,521.05 C247.93,524.87 259.76,554.36 259.76,554.36 L256.34,603.87 L253.34,632.67 C253.34,632.67 268.34,627.27 273.15,627.87 C275.29,628.14 277.67,626.16 279.63,623.87 C276.51,607 269.85,571.71 268.63,571.03 C267.04,570.13 258.94,541.77 258.51,533.89 C258.08,526.01 246.8,508.25 246.8,508.25 C246.8,508.25 242.08,517.23 245.01,521.05 Z" id="Path" fill="#000000" fill-rule="nonzero" opacity="0.1"></path>
            <path d="M256.34,472.44 C257.07,474.69 258.23,487.74 258.23,487.74 C259.05,499.25 267.75,503.01 273.15,504.21 C273.277278,503.405283 273.47128,502.612549 273.73,501.84 C277.33,491.65 324.14,393.22 324.14,393.22 C324.091556,388.224328 323.464032,383.251121 322.27,378.4 C312.08,375.4 295.94,380.02 295.94,380.02 C291.28,379.41 276.07,409.66 276.07,409.66 C276.07,409.66 265.93,432.83 264.82,435.98 C263.71,439.13 264.82,444.32 264.37,446.12 C263.92,447.92 259.18,449.48 258.51,451.97 C257.84,454.46 258.28,459.38 257.83,460.28 C257.38,461.18 255.56,470.19 256.34,472.44 Z" id="Path" fill="#000000" fill-rule="nonzero" opacity="0.1"></path>
            <path d="M259.94,470.64 C260.68,472.89 261.83,485.94 261.83,485.94 C262.51,495.52 268.67,499.73 273.83,501.57 C276.147207,502.397564 278.572745,502.882672 281.03,503.01 L288.27,509.29 L321.68,533.94 C321.68,533.94 334.14,510.94 330.76,510.79 C327.38,510.64 307.89,494.29 307.89,494.29 C301.89,491.11 295.95,480.47 293.18,475.01 C293.343508,474.351902 293.463765,473.683807 293.54,473.01 C294.75,462.82 319.95,423.81 319.95,423.81 C319.95,423.81 329.69,412.34 333.49,391.09 C333.6,390.61 333.67,390.09 333.76,389.6 C333.867721,388.938079 333.934514,388.270144 333.96,387.6 C334.41,379.43 328.47,376.46 321.41,375.75 L321.41,375.75 C317.741836,375.464814 314.053549,375.578815 310.41,376.09 C306.765205,376.545434 303.156498,377.25381 299.61,378.21 C296.61,377.82 289.15,390.37 284.27,399.26 L284.27,399.26 C281.64,404.08 279.75,407.85 279.75,407.85 C279.75,407.85 269.56,431.03 268.42,434.18 C267.28,437.33 268.42,442.51 267.97,444.32 C267.52,446.13 262.78,447.68 262.12,450.17 C261.46,452.66 261.88,457.58 261.43,458.48 C260.98,459.38 259.18,468.39 259.94,470.64 Z" id="Path" fill="#993333" fill-rule="nonzero"></path>
            <path d="M221.17,418.76 C227.51,425.28 237.85,425.3 246.11,421.99 C254.37,418.68 261.38,412.64 269.05,407.99 C274.05,404.99 279.29,402.46 284.19,399.33 L284.19,399.33 C284.91,398.86 285.61,398.39 286.29,397.91 C291.95,393.91 296.84,388.78 302.69,385.11 C306.610787,382.516227 311.171839,381.05586 315.87,380.89 C318.037632,380.868148 320.184024,381.318583 322.16,382.21 C322.504962,382.359991 322.839098,382.533741 323.16,382.73 C325.082729,383.842884 326.862538,385.186136 328.46,386.73 C330.11,388.22 331.7,389.81 333.46,391.19 C333.57,390.71 333.64,390.19 333.73,389.7 C333.837721,389.038079 333.904514,388.370144 333.93,387.7 C335.25,387.83 336.58,387.9 337.93,387.9 C342.23678,387.877337 346.508103,387.119794 350.56,385.66 C350.56,385.5 350.62,385.33 350.65,385.17 C352.09,377.61 354.65,369.6 360.77,365.35 C364.3,362.88 369.94,361.88 374.82,360 C379.470563,343.802549 373.017181,326.465672 358.90751,317.251425 C344.797839,308.037178 326.329323,309.098939 313.368583,319.869472 C300.407844,330.640006 295.983819,348.602229 302.46,364.16 C296.26,363.35 287.46,364.16 275.46,369.22 C247.26,381.22 240.66,381.82 240.66,381.82 L226.56,400.42 C228.09,402.76 229.82,405.07 229.98,407.8 C230.3,412.86 225.42,416.35 221.17,418.76 Z" id="Path" fill="#000000" fill-rule="nonzero" opacity="0.1"></path>
            <path d="M360.82,361.76 C354.73,366.02 352.14,374.02 350.7,381.57 C350.25,383.93 349.82,386.42 348.38,388.29 C345.15,392.48 338.65,391.29 334.43,388.29 C330.21,385.29 326.89,380.73 322.18,378.6 C315.92,375.78 308.57,377.84 302.72,381.51 C296.87,385.18 291.97,390.31 286.31,394.3 C280.84,398.16 274.74,400.91 269.04,404.38 C261.38,409.05 254.38,415.08 246.11,418.38 C237.84,421.68 227.51,421.68 221.18,415.16 C225.43,412.8 230.31,409.31 229.98,404.26 C229.65,399.21 223.76,395.42 224.16,390.26 C224.56,385.1 230.65,383.04 235.02,380.5 C244.17,375.18 248.02,363.5 250.02,352.7 C251.54,344.27 252.79,334.84 259.1,329.43 C263.16,325.94 268.67,324.8 272.76,321.35 C276.64,318.07 278.76,313.1 281.24,308.53 C285.31,300.9 290.65,293.82 297.72,289.26 C304.79,284.7 313.78,282.94 321.54,286.01 C324.54,287.18 327.22,289.01 330.16,290.28 C337.46,293.44 345.83,293.02 353.07,296.34 C361.98,300.44 367.77,309.5 373.07,318.1 C377.6,325.45 386.46,338.46 383.98,347.96 C381.45,357.65 367.43,357.13 360.82,361.76 Z" id="Path" fill="#7C5C5C" fill-rule="nonzero"></path>
            <g id="Group" opacity="0.1" transform="translate(221.000000, 334.000000)" fill="#000000" fill-rule="nonzero">
                <path d="M3.16,55.63 C3.19242686,55.2341822 3.26274894,54.8423878 3.37,54.46 C4.98,57 6.99,59.46 7.18,62.46 C7.22593108,63.1479878 7.16862965,63.8389757 7.01,64.51 C5.22,61.63 2.91,58.94 3.16,55.63 Z" id="Path"></path>
                <path d="M23.31,76.57 C31.58,73.25 38.58,67.22 46.24,62.57 C51.94,59.1 58.04,56.35 63.51,52.49 C69.17,48.49 74.07,43.36 79.92,39.7 C85.77,36.04 93.12,33.97 99.38,36.79 C104.09,38.92 107.38,43.43 111.63,46.48 C115.88,49.53 122.35,50.72 125.58,46.53 C127.03,44.66 127.45,42.18 127.9,39.82 C129.34,32.26 131.9,24.26 138.02,20 C144.64,15.38 158.65,15.9 161.19,6.15 C161.613137,4.42023452 161.724881,2.62894236 161.52,0.86 C163.15,5.19 163.98,9.55 163,13.35 C160.45,23.1 146.44,22.58 139.82,27.2 C133.74,31.46 131.14,39.46 129.7,47.02 C129.25,49.38 128.83,51.87 127.39,53.73 C124.15,57.92 117.65,56.73 113.39,53.68 C109.13,50.63 105.85,46.12 101.14,43.99 C94.88,41.17 87.53,43.24 81.68,46.9 C75.83,50.56 70.93,55.7 65.27,59.69 C59.8,63.56 53.7,66.3 48,69.77 C40.34,74.45 33.34,80.47 25.07,83.77 C16.8,87.07 6.47,87.06 0.14,80.54 C1.77563623,79.6541157 3.32852357,78.6233198 4.78,77.46 C10.56,79.57 17.46,78.91 23.31,76.57 Z" id="Path"></path>
            </g>
            <path d="M849.131574,339.988888 L830.52819,322.348229 C827.206777,318.957629 822.666259,317.032209 817.916016,316.997329 C813.165772,316.967791 808.599477,318.831461 805.232241,322.176708 L579.49,545.753647 L477.755965,438.659656 C470.869843,431.686427 459.625516,431.605981 452.64,438.479967 L431.584792,458.346208 C424.61259,465.298042 424.536012,476.554821 431.412989,483.600561 L566.662869,619.689835 C573.623905,626.652857 584.899243,626.73295 591.958818,619.869523 L848.943408,365.235073 C852.339261,361.921618 854.269206,357.391537 854.306433,352.651108 C854.339868,347.910679 852.477661,343.352427 849.131574,339.988888 Z" id="Path" fill="#3ACC6C" fill-rule="nonzero"></path>
            <g id="Group" opacity="0.5" transform="translate(806.000000, 642.000000)" fill="#993333" fill-rule="nonzero">
                <path d="M27.78,1.01 C27.78,1.01 -2.8,-0.83 0.78,20.6 C0.403020394,22.8284661 1.50017283,25.0469729 3.5,26.1 C3.5,26.1 3.5,24.51 6.63,25.05 C7.72945543,25.2377084 8.84761281,25.2914337 9.96,25.21 C11.4595567,25.1123541 12.8857363,24.5257236 14.02,23.54 L14.02,23.54 C14.02,23.54 22.61,19.99 25.96,5.93 C25.96,5.93 28.43,2.87 28.33,2.08 L23.17,4.29 C23.17,4.29 24.94,8.01 23.55,11.1 C23.55,11.1 23.38,4.42 22.39,4.58 C22.19,4.58 19.71,5.87 19.71,5.87 C19.71,5.87 22.71,12.35 20.45,17.07 C20.45,17.07 21.32,9.07 18.76,6.34 L15.13,8.46 C15.13,8.46 18.67,15.16 16.27,20.62 C16.27,20.62 16.89,12.24 14.36,8.98 L11.07,11.54 C11.07,11.54 14.4,18.14 12.37,22.68 C12.37,22.68 12.11,12.92 10.37,12.18 C10.37,12.18 7.49,14.72 7.05,15.77 C7.05,15.77 9.33,20.56 7.92,23.09 C7.92,23.09 7.05,16.58 6.34,16.56 C6.34,16.56 3.47,20.86 3.17,23.81 C3.30835948,21.0813121 4.1600321,18.4366445 5.64,16.14 C3.98611121,16.4570024 2.46052756,17.2493328 1.25,18.42 C1.25,18.42 1.69,15.42 6.35,15.1 C6.35,15.1 8.72,11.84 9.35,11.64 C9.35,11.64 4.72,11.25 1.91,12.5 C1.91,12.5 4.38,9.62 10.19,10.93 L13.44,8.28 C13.44,8.28 7.35,7.44 4.76,8.36 C4.76,8.36 7.76,5.82 14.32,7.67 L17.86,5.56 C17.86,5.56 12.66,4.44 9.56,4.84 C9.56,4.84 12.83,3.08 18.9,4.99 L21.43,3.85 C21.43,3.85 17.62,3.1 16.5,2.99 C15.38,2.88 15.33,2.56 15.33,2.56 C17.7414743,2.16106344 20.2163262,2.43796994 22.48,3.36 C22.48,3.36 27.87,1.35 27.78,1.01 Z" id="Path"></path>
            </g>
            <g id="Group" opacity="0.5" transform="translate(773.000000, 493.000000)" fill="#993333" fill-rule="nonzero">
                <path d="M5.91,0.35 C5.91,0.35 -9.62,26.76 11.12,33.28 C12.9350157,34.6286885 15.4104614,34.6609419 17.26,33.36 C17.26,33.36 15.87,32.59 17.74,30.09 C18.403932,29.1945609 18.9610374,28.2246603 19.4,27.2 C19.9837471,25.8154076 20.1064616,24.2797233 19.75,22.82 L19.75,22.82 C19.75,22.82 20.48,13.55 9.48,4.19 C9.48,4.19 7.87,0.59 7.13,0.32 L6.75,5.92 C6.75,5.92 10.86,6.04 12.99,8.68 C12.99,8.68 6.99,5.8 6.65,6.75 C6.59,6.95 6.58,9.75 6.58,9.75 C6.58,9.75 13.74,9.99 16.9,14.17 C16.9,14.17 10.18,9.77 6.57,10.81 L6.81,15.01 C6.81,15.01 14.39,14.89 18.17,19.51 C18.17,19.51 10.98,15.15 6.93,15.92 L7.72,20.02 C7.72,20.02 15.12,20.02 18.23,23.91 C18.23,23.91 9.42,19.72 7.97,20.91 C7.97,20.91 8.97,24.63 9.65,25.5 C9.65,25.5 14.96,25.64 16.57,28.05 C16.57,28.05 10.38,25.87 10.03,26.49 C10.03,26.49 12.57,31 15.03,32.61 C12.6624704,31.2444675 10.6938312,29.2827237 9.32,26.92 C8.8260121,28.5500631 8.8260121,30.2899369 9.32,31.92 C9.32,31.92 6.81,30.14 8.69,25.92 C8.69,25.92 6.85,22.33 6.96,21.67 C6.96,21.67 4.52,25.62 4.35,28.67 C4.35,28.67 2.91,25.16 6.71,20.57 L5.83,16.47 C5.83,16.47 2.32,21.53 1.96,24.25 C1.96,24.25 1.05,20.44 5.69,15.42 L5.41,11.31 C5.41,11.31 2.05,15.43 1.01,18.37 C1.01,18.37 0.92,14.66 5.37,10.12 L5.51,7.35 C5.51,7.35 3.11,10.41 2.51,11.35 C1.91,12.29 1.6,12.2 1.6,12.2 C2.33428852,9.8721621 3.70199135,7.79463881 5.55,6.2 C5.55,6.2 6.25,0.42 5.91,0.35 Z" id="Path"></path>
            </g>
            <g id="Group" opacity="0.5" transform="translate(676.000000, 282.000000)" fill="#993333" fill-rule="nonzero">
                <path d="M5.78,0.64 C5.78,0.64 -9.74,27.06 10.99,33.57 C12.802899,34.9249349 15.2824147,34.9572413 17.13,33.65 C17.13,33.65 15.74,32.88 17.62,30.38 C18.2810609,29.4844652 18.8348415,28.5145101 19.27,27.49 C19.8586877,26.1066177 19.9815317,24.5693131 19.62,23.11 L19.62,23.11 C19.62,23.11 20.36,13.84 9.35,4.48 C9.35,4.48 7.74,0.89 7,0.62 L6.62,6.21 C6.62,6.21 10.74,6.33 12.86,8.97 C12.86,8.97 6.86,6.09 6.53,7.04 C6.46,7.24 6.46,10.04 6.46,10.04 C6.46,10.04 13.61,10.28 16.77,14.46 C16.77,14.46 10.05,10.06 6.44,11.1 L6.69,15.3 C6.69,15.3 14.26,15.18 18.04,19.8 C18.04,19.8 10.85,15.45 6.8,16.21 L7.59,20.31 C7.59,20.31 14.99,20.31 18.11,24.21 C18.11,24.21 9.29,20.01 7.84,21.21 C7.84,21.21 8.84,24.92 9.53,25.79 C9.53,25.79 14.83,25.93 16.44,28.34 C16.44,28.34 10.25,26.16 9.91,26.78 C9.91,26.78 12.44,31.3 14.91,32.9 C12.5403499,31.5382466 10.5683488,29.5800357 9.19,27.22 C8.71153034,28.8319096 8.71153034,30.5480904 9.19,32.16 C9.19,32.16 6.68,30.38 8.56,26.11 C8.56,26.11 6.72,22.52 6.83,21.86 C6.83,21.86 4.39,25.81 4.22,28.86 C4.22,28.86 2.78,25.35 6.59,20.76 L5.7,16.66 C5.7,16.66 2.19,21.72 1.84,24.44 C1.84,24.44 0.92,20.63 5.56,15.61 L5.28,11.5 C5.28,11.5 1.92,15.62 0.88,18.56 C0.88,18.56 0.79,14.85 5.24,10.32 L5.38,7.54 C5.38,7.54 2.98,10.6 2.38,11.54 C1.78,12.48 1.47,12.39 1.47,12.39 C2.2215627,10.0579708 3.60642028,7.98068448 5.47,6.39 C5.47,6.39 6.12,0.76 5.78,0.64 Z" id="Path"></path>
            </g>
            <g id="Group" opacity="0.5" transform="translate(314.000000, 82.000000)" fill="#993333" fill-rule="nonzero">
                <path d="M33.42,0.55 C33.42,0.55 -24.38,42.55 13.88,75.82 C13.88,75.82 18.21,83.7 26.94,81.71 C26.94,81.71 24.68,78.77 31.03,75.17 C33.2808351,73.8767356 35.3689857,72.3190155 37.25,70.53 C39.7941778,68.1337651 41.4895295,64.9747245 42.08,61.53 L42.08,61.53 C42.08,61.53 52.3,42.39 37.49,12.13 C37.49,12.13 37.4,2.94 36.05,1.67 L30.05,13.29 C30.05,13.29 38.74,17.38 40.83,25.01 C40.83,25.01 30.62,13.22 29.07,15.01 C28.76,15.36 26.15,21.31 26.15,21.31 C26.15,21.31 41.24,28.49 44.1,40.37 C44.1,40.37 33.82,24.69 25.1,23.55 L21.71,32.76 C21.71,32.76 38.02,39.57 41.8,52.97 C41.8,52.97 30.48,36.97 21.1,34.82 L18.98,44.33 C18.98,44.33 34.76,51.28 37.83,62.45 C37.83,62.45 22.83,45.27 18.64,46.54 C18.64,46.54 17.22,55.38 17.97,57.91 C17.97,57.91 29.19,63.16 30.39,69.81 C30.39,69.81 19.18,59.39 17.86,60.39 C17.86,60.39 19.08,72.39 22.92,78.16 C22.92,78.16 16.63,70.07 15.99,60.68 C15.99,60.68 11.7,65.68 11.46,71.29 C11.46,71.29 7.74,65.14 15.73,57.76 C15.73,57.76 15.16,48.36 16.01,47.06 C16.01,47.06 7.09,53.23 3.88,59.63 C3.88,59.63 4.07,50.79 16.48,44.52 L18.4,34.93 C18.4,34.93 6.19,42.46 2.9,47.93 C2.9,47.93 4.49,38.93 19.08,32.51 L22.32,23.46 C22.32,23.46 11.32,29.15 6.32,34.46 C6.32,34.46 9.59,26.46 23.32,20.89 L26.19,15.09 C26.19,15.09 18.19,19.39 16.04,20.83 C13.89,22.27 13.29,21.83 13.29,21.83 C17.0358708,17.528933 21.9038123,14.354038 27.35,12.66 C27.35,12.66 34.09,1.02 33.42,0.55 Z" id="Path"></path>
            </g>
            <g id="Group" opacity="0.5" transform="translate(204.000000, 212.000000)" fill="#993333" fill-rule="nonzero">
                <path d="M87.27,9.14 C87.27,9.14 12.5,-22.3 2.7,34.39 C2.7,34.39 -2.41,43.23 4.7,50.53 C4.7,50.53 6.23,46.61 13.46,50.66 C16.0387757,52.0862227 18.7780095,53.2007149 21.62,53.98 C25.4581007,55.0387239 29.536349,54.8211238 33.24,53.36 L33.24,53.36 C33.24,53.36 57.82,52.03 78.51,19.86 C78.51,19.86 87.37,14.38 87.82,12.32 L72.99,13.32 C72.99,13.32 74.13,24.17 67.99,30.68 C67.99,30.68 73.44,13.84 70.82,13.37 C70.29,13.27 62.99,14.23 62.99,14.23 C62.99,14.23 64.88,33.1 54.99,42.86 C54.99,42.86 64.17,23.67 60.17,14.57 L49.24,16.68 C49.24,16.68 52.24,36.53 41.42,48.07 C41.42,48.07 50.31,27.67 46.88,17.31 L36.4,20.83 C36.4,20.83 38.93,40.24 29.88,49.83 C29.88,49.83 37.78,25.22 34.06,21.83 C34.06,21.83 24.64,25.65 22.62,27.83 C22.62,27.83 24.12,41.83 18.36,46.88 C18.36,46.88 21.9,29.88 20.15,29.18 C20.15,29.18 9.2,37.42 5.86,44.53 C5.86,44.53 10.03,33.67 18.77,27.53 C18.77,27.53 11.43,26.28 5.77,29.36 C5.77,29.36 9.56,22.15 21.42,25.57 C21.42,25.57 30.21,19.48 31.97,19.57 C31.97,19.57 20.75,14.57 12.64,15.19 C12.64,15.19 21.33,10.19 34.71,18.54 L45.14,14.76 C45.14,14.76 30.65,7.33 23.38,7.36 C23.38,7.36 33.04,3.62 47.86,14.02 L58.56,11.81 C58.56,11.81 46.56,4.46 38.46,2.76 C38.46,2.76 48.17,1.22 61.64,11.31 L68.96,10.7 C68.96,10.7 60.1,5.48 57.42,4.21 C54.74,2.94 54.86,2.12 54.86,2.12 C61.2386823,3.22748093 67.1835856,6.08740529 72.03,10.38 C72.03,10.38 87.2,10.07 87.27,9.14 Z" id="Path"></path>
            </g>
            <g id="Group" opacity="0.5" transform="translate(173.000000, 101.000000)" fill="#993333" fill-rule="nonzero">
                <path d="M73.5,40.76 C73.5,40.76 46.99,-20.51 8.88,7.59 C8.88,7.59 0.81,9.93 0.879547229,18.29 C0.879547229,18.29 4.02,16.83 6,23.36 C6.73821089,25.6730151 7.74508526,27.891495 9,29.97 C10.6752283,32.7879992 13.224239,34.9823955 16.26,36.22 L16.26,36.22 C16.26,36.22 31.62,49.44 62.26,42.11 C62.26,42.11 70.65,43.9 72.09,42.94 L62.72,35.07 C62.72,35.07 57.22,42.17 49.84,42.51 C49.84,42.51 62.67,35.61 61.38,33.84 C61.12,33.48 56.24,29.9 56.24,29.9 C56.24,29.9 46.61,42.18 35.24,42.37 C35.24,42.37 51.63,36.19 54.43,28.52 L46.73,23.52 C46.73,23.52 37.06,37.05 24.07,37.76 C24.07,37.76 40.97,30.71 44.84,22.59 L36.61,18.76 C36.61,18.76 27.05,31.76 16.24,32.25 C16.24,32.25 34.95,22.13 34.66,18 C34.66,18 26.89,14.9 24.43,15.08 C24.43,15.08 17.36,24.23 11.05,23.97 C11.05,23.97 22.84,15.88 22.19,14.47 C22.19,14.47 10.99,13.13 4.96,15.47 C4.96,15.47 13.62,11.39 22.31,12.73 C22.31,12.73 18.66,7.8 13.56,6.43 C13.56,6.43 19.93,4.3 25.02,13.08 C25.02,13.08 33.71,14.48 34.72,15.52 C34.72,15.52 30.92,6.13 25.72,1.9 C25.72,1.9 33.72,3.9 36.93,16.47 L45.28,20.18 C45.28,20.18 40.91,7.5 36.57,3.39 C36.57,3.39 44.44,6.67 47.32,21.29 L54.91,26.08 C54.91,26.08 51.97,14.88 48.14,9.25 C48.14,9.25 54.78,13.87 57.04,27.54 L61.74,31.34 C61.74,31.34 59.44,23.2 58.57,20.92 C57.7,18.64 58.25,18.22 58.25,18.22 C61.4042181,22.5104665 63.3048484,27.5926619 63.74,32.9 C63.74,32.9 72.94,41.29 73.5,40.76 Z" id="Path"></path>
            </g>
            <g id="Group" opacity="0.5" transform="translate(732.000000, 151.000000)" fill="#993333" fill-rule="nonzero">
                <path d="M31.18,22.64 C31.18,22.64 24.93,-7.36 5.18,1.75 C2.92630229,1.96557606 1.06848364,3.60934169 0.58,5.82 C0.58,5.82 2.13,5.45 2.42,8.57 C2.52978173,9.67720918 2.76805127,10.7678796 3.13,11.82 C3.62946467,13.2388975 4.57271366,14.4591601 5.82,15.3 L5.82,15.3 C5.82,15.3 11.5,22.66 25.93,22.2 C25.93,22.2 29.54,23.78 30.28,23.48 L26.79,19.08 C26.79,19.08 23.66,21.76 20.32,21.23 C20.32,21.23 26.72,19.32 26.32,18.4 C26.23,18.21 24.37,16.15 24.37,16.15 C24.37,16.15 18.91,20.78 13.76,19.81 C13.76,19.81 21.69,18.55 23.67,15.36 L20.67,12.41 C20.67,12.41 15.13,17.59 9.23,16.7 C9.23,16.7 17.48,15.1 19.97,11.81 L16.63,9.31 C16.63,9.31 11.13,14.25 6.22,13.48 C6.22,13.48 15.57,10.66 15.82,8.78 C15.82,8.78 12.62,6.67 11.49,6.52 C11.49,6.52 7.49,9.98 4.66,9.28 C4.66,9.28 10.66,6.74 10.55,6.04 C10.55,6.04 5.64,4.4 2.71,4.89 C5.37986195,4.31131699 8.15447838,4.43884594 10.76,5.26 C10.02492,3.74408395 8.85981755,2.47812186 7.41,1.62 C7.41,1.62 10.47,1.25 11.95,5.62 C11.95,5.62 15.72,7.05 16.08,7.62 C16.08,7.62 15.24,3.05 13.3,0.62 C13.3,0.62 16.72,2.25 16.99,8.21 L20.4,10.65 C20.4,10.65 19.61,4.55 18.04,2.29 C18.04,2.29 21.27,4.5 21.21,11.29 L24.21,14.15 C24.21,14.15 23.93,8.84 22.73,5.96 C22.73,5.96 25.28,8.65 25.03,14.96 L26.79,17.11 C26.79,17.11 26.52,13.24 26.34,12.11 C26.16,10.98 26.44,10.86 26.44,10.86 C27.4621735,13.0847581 27.8464504,15.5496699 27.55,17.98 C27.55,17.98 30.88,22.82 31.18,22.64 Z" id="Path"></path>
            </g>
            <g id="Group" opacity="0.5" transform="translate(624.000000, 707.000000)" fill="#993333" fill-rule="nonzero">
                <path d="M31.56,22.76 C31.56,22.76 25.32,-7.24 5.56,1.87 C3.30380035,2.0845122 1.44250112,3.72778505 0.95,5.94 C0.95,5.94 2.5,5.57 2.79,8.69 C2.89807974,9.79840146 3.13983556,10.8896604 3.51,11.94 C4.00683268,13.3574899 4.9464395,14.5775764 6.19,15.42 L6.19,15.42 C6.19,15.42 11.87,22.78 26.31,22.32 C26.31,22.32 29.92,23.9 30.65,23.6 L27.17,19.2 C27.17,19.2 24.04,21.88 20.69,21.35 C20.69,21.35 27.09,19.44 26.69,18.52 C26.61,18.33 24.74,16.27 24.74,16.27 C24.74,16.27 19.28,20.9 14.13,19.93 C14.13,19.93 22.07,18.67 24.04,15.48 L21.04,12.48 C21.04,12.48 15.56,17.68 9.64,16.76 C9.64,16.76 17.89,15.16 20.38,11.87 L17.04,9.37 C17.04,9.37 11.55,14.31 6.64,13.54 C6.64,13.54 15.99,10.73 16.24,8.84 C16.24,8.84 13.03,6.73 11.91,6.58 C11.91,6.58 7.91,10.04 5.07,9.34 C5.07,9.34 11.07,6.8 10.96,6.1 C10.96,6.1 6.05,4.46 3.12,4.95 C5.79317954,4.37093526 8.57111628,4.49845841 11.18,5.32 C10.441494,3.80641937 9.27720636,2.54134261 7.83,1.68 C7.83,1.68 10.88,1.31 12.36,5.68 C12.36,5.68 16.14,7.11 16.5,7.68 C16.5,7.68 15.66,3.11 13.72,0.68 C13.72,0.68 17.14,2.31 17.4,8.27 L20.82,10.71 C20.82,10.71 20.02,4.61 18.45,2.35 C18.45,2.35 21.69,4.56 21.63,11.35 L24.63,14.21 C24.63,14.21 24.35,8.9 23.14,6.02 C23.14,6.02 25.7,8.71 25.45,15.02 L27.21,17.17 C27.21,17.17 26.93,13.3 26.75,12.17 C26.57,11.04 26.85,10.93 26.85,10.93 C27.8728678,13.1510002 28.2572167,15.6129107 27.96,18.04 C27.96,18.04 31.28,22.91 31.56,22.76 Z" id="Path"></path>
            </g>
        </g>
    </g>
</svg>